<svg xmlns="http://www.w3.org/2000/svg" width="420.3" height="637" viewBox="0 0 420.3 637">
  <path id="banner-wave-1" d="M265.872,797.055c7.8-14.81,18.156-28.347,29.365-40.686,17.852-19.735,38.953-36.9,53.2-59.631,40.747-65.83-40.178-116.672-84.127-153.341-32.962-27.734-71.434-56.111-85.331-98.622-8.792-43.4,36.725-70.7,56.53-103.576,35.938-55.766-104.386-112.4-139.489-136.258-22.2-13.719-43.961-28.244-64.842-43.886H228.5a496.057,496.057,0,0,0,56.52,17.874c34.8,11.066,72.644,15.838,104.193,35.1,23.446,15.755,38.587,43.1,41.633,70.97,3.162,31.431-19.868,44.1-43.966,56.923-25.267,14.579-54,30.826-64.543,59.7-21.013,67.669,83.666,122.491,111.333,177.449,19.2,32.215,21.567,73.715,3.421,106.907-17.018,32.18-43.089,58.125-66.272,85.8a209.5,209.5,0,0,0-19.106,25.274Z" transform="translate(-29.676 -160.555)" fill="#a22c85" stroke="rgba(0,0,0,0)" stroke-miterlimit="10" stroke-width="1"/>
</svg>
