<svg xmlns="http://www.w3.org/2000/svg" width="317.284" height="252.097" viewBox="0 0 317.284 252.097">
  <g id="Group_670" data-name="Group 670" transform="translate(-10232 1645.097)">
    <g id="Group_669" data-name="Group 669">
      <path id="Path_2160" data-name="Path 2160" d="M0,55.578V7.28A51.517,51.517,0,0,1,14.372.732,23.088,23.088,0,0,1,23.686.281C37.279,2.514,47.969,19.815,57.033,31.016S72.647,44.753,82.241,50.867c7.672,4.89,13.339,7.979,26.049,9.926s34.326-.4,52.675-2.195c7.518-.735,6.232-1.335,22.145-1.274s49.948,8.826,58.595,22.389,3.743,48.91,3.128,60.252-1.031,34.223,12.1,46.787,39.379,22.5,52.787,41.536c3.2,4.537,5.663,9.592,7.568,23.809H247.291" transform="translate(10232 -1645.097)" fill="#a22c85" fill-rule="evenodd"/>
      <path id="Path_2159" data-name="Path 2159" d="M150.4,274.146c-10.843-7.2-13.324-120.4-26-114.02V95.576c19.748-8.783,36.481-2.457,49.308,9,13.537,12.1,22.726,29.909,39.314,36.363s40.578,1.544,60.079,5.369,34.514,16.386,39.584,32.9.2,36.995,4.136,52.2,16.69,25.147,31.5,37.148c8.435,6.833,17.539,14.336,23.365,23.528H293.853" transform="translate(10107.604 -1685.095)" fill="#b73f96" fill-rule="evenodd"/>
      <path id="Path_2158" data-name="Path 2158" d="M328.106,238.561c8.72,3.469,22.409-1.969,35.811,3.521s26.518,21.908,27.643,35.972-9.74,25.774-.266,35.474c7.963,8.151,30.292,14.882,40.89,29.289H262.728V210.848c12.681-6.382,30.344-3.114,41.187,4.086,11.72,7.782,15.471,20.158,24.191,23.627" transform="translate(9969.271 -1735.817)" fill="#c271ac" fill-rule="evenodd"/>
    </g>
  </g>
</svg>
