<svg xmlns="http://www.w3.org/2000/svg" width="247.29" height="200.637" viewBox="0 0 247.29 200.637">
  <path id="Path_2159" data-name="Path 2159" d="M225.586,191.361c-13.4-5.49-27.092-.052-35.811-3.521s-12.47-15.846-24.191-23.628c-10.843-7.2-28.507-10.467-41.187-4.085V95.576c19.748-8.783,36.481-2.457,49.308,9,13.537,12.1,22.726,29.909,39.314,36.363s40.578,1.544,60.079,5.369,34.514,16.386,39.584,32.9.2,36.995,4.136,52.2,16.69,25.147,31.5,37.148c8.435,6.833,17.539,14.336,23.365,23.528H293.853c-10.6-14.407-32.926-21.138-40.889-29.289-9.475-9.7,1.39-21.41.265-35.474s-14.241-30.482-27.643-35.972" transform="translate(-124.397 -91.458)" fill="#b84094" fill-rule="evenodd"/>
</svg>
