<svg id="logo-abpd" xmlns="http://www.w3.org/2000/svg" xmlns:xlink="http://www.w3.org/1999/xlink" width="257.565" height="69.701" viewBox="0 0 257.565 69.701">
  <defs>
    <clipPath id="clip-path">
      <rect id="Rectangle_304" data-name="Rectangle 304" width="257.565" height="69.701" fill="none"/>
    </clipPath>
  </defs>
  <g id="Group_787" data-name="Group 787" clip-path="url(#clip-path)">
    <path id="Path_2389" data-name="Path 2389" d="M33.959,0c-.014.243-.041.485-.041.728q0,15.9,0,31.8v1.291c-.255.011-.453.028-.65.028l-28.135,0q-2.565,0-5.131,0V0ZM5.824,27.8c.1.436.372.446.666.445,1.8,0,3.6,0,5.406,0a1.8,1.8,0,0,0,.337-.015c.2-.039.349-.137.318-.461-.249-.04-.516-.084-.784-.125a.877.877,0,0,1-.868-1.028,3.253,3.253,0,0,1,.15-.828c.376-1.18.77-2.354,1.158-3.53.229-.694.452-1.391.693-2.081.15-.43.274-.518.694-.518,1.842,0,3.683.014,5.525,0a.635.635,0,0,1,.692.5c.761,2.06,1.556,4.108,2.326,6.164.316.845.3.85-.1,1.531a.5.5,0,0,0,.527.332q2.564.036,5.128.062c.27,0,.412-.137.438-.477a2.482,2.482,0,0,0-.512-.11A2.656,2.656,0,0,1,25.245,26.3a15.421,15.421,0,0,1-1.053-2.052c-.577-1.385-1.1-2.794-1.638-4.194q-1.509-3.916-3.011-7.834-1.031-2.681-2.065-5.36a7.36,7.36,0,0,0-.453-.969c-.164-.288-.364-.292-.574-.035a1.29,1.29,0,0,0-.187.343c-.172.436-.341.873-.5,1.314-.487,1.34-.963,2.684-1.453,4.023-.645,1.763-1.3,3.521-1.95,5.284-.491,1.338-.971,2.681-1.459,4.02-.339.933-.677,1.868-1.025,2.8-.276.738-.552,1.477-.855,2.2a2.674,2.674,0,0,1-2.739,1.838,1.717,1.717,0,0,0-.458.117" fill="#1e6f37"/>
    <path id="Path_2390" data-name="Path 2390" d="M0,148.906c.3-.008.6-.022.9-.022h32.91c.123.47.21,31.964.1,33.341a1.819,1.819,0,0,1-.089.337c-5.415,0-10.787,0-16.159,0-.956,0-1.917.015-2.866-.078a14.322,14.322,0,0,1-2.426-.474,15.669,15.669,0,0,1-4.634-2.131,16.841,16.841,0,0,1-5.579-6.086,16.483,16.483,0,0,1-1.5-3.76c-.174-.709-.259-1.44-.389-2.16-.038-.213,0-.468-.269-.574v-18.39m10.24,27.569c.218.348.219.362.551.354.6-.014,1.2-.07,1.793-.067,1.033.005,2.066.046,3.1.065.507.009,1.014,0,1.521,0,.229,0,.441-.068.434-.33-.008-.277-.244-.28-.461-.285-.336-.008-.672-.029-1.008-.046a1,1,0,0,1-.767-.411,1.978,1.978,0,0,1-.406-1.15c-.051-.994-.1-1.99-.1-2.985q-.016-7.531-.008-15.061c0-.631.1-.764.728-.816a11.8,11.8,0,0,1,1.459-.018,4.582,4.582,0,0,1,3.955,2.578,6.269,6.269,0,0,1,.761,2.8,4.5,4.5,0,0,1-1.729,4.009,4.756,4.756,0,0,1-3.174,1.1,2.309,2.309,0,0,0-.615.055c-.1.025-.236.152-.241.24a.419.419,0,0,0,.2.288.7.7,0,0,0,.329.053,8.283,8.283,0,0,0,2.508-.237,6.5,6.5,0,0,0,4.844-4.5,6.012,6.012,0,0,0,.174-3.389,4.689,4.689,0,0,0-2.452-3.209,7.843,7.843,0,0,0-3.361-.806c-.639-.018-1.278-.017-1.918-.019-1.465,0-2.93,0-4.395-.007-.581,0-1.162-.013-1.743-.012-.172,0-.366.03-.388.243-.025.244.166.315.365.335.149.015.3,0,.45.009a1.553,1.553,0,0,1,1.623,1.746c0,.225.022.451.022.676q0,7.9-.019,15.793a11.243,11.243,0,0,1-.188,1.618,1.218,1.218,0,0,1-1.259,1.131c-.218.013-.462,0-.582.252" transform="translate(0 -112.916)" fill="#6a4382"/>
    <path id="Path_2391" data-name="Path 2391" d="M167.368,0a2.233,2.233,0,0,0,.552.213A16.192,16.192,0,0,1,176.681,4,16.93,16.93,0,0,1,180.1,7.872a16.442,16.442,0,0,1,1.823,3.857,17.913,17.913,0,0,1,.833,5.708q-.005,8.037.011,16.075c0,.073-.015.146-.031.289-.217.016-.432.045-.648.046q-7.051.005-14.1.005h-17.88c-.352,0-.7-.01-1.085-.016-.014-.212-.031-.356-.031-.5q0-16.555,0-33.109c0-.075-.007-.15-.011-.225Zm1.214,15.441c.33-.37.63-.7.918-1.032a6.177,6.177,0,0,0,1.669-3.909,4.024,4.024,0,0,0-1.347-3.224,5.943,5.943,0,0,0-4-1.413c-1.913-.026-3.827-.017-5.74-.021-.488,0-.975.005-1.463.014-.194,0-.355.1-.319.3a.444.444,0,0,0,.3.249,5.6,5.6,0,0,0,.617.024,1.488,1.488,0,0,1,1.5,1.57c.027.487.07.974.07,1.461q.007,6.344,0,12.688c0,.994-.053,1.989-.1,2.983a8.019,8.019,0,0,1-.119,1.006c-.16.928-.429,1.174-1.359,1.271-.22.023-.518,0-.5.312.021.288.318.286.538.279.449-.013.9-.086,1.347-.078,1.633.03,3.266.061,4.9.136a10.187,10.187,0,0,0,2.847-.251,6.427,6.427,0,0,0,5.063-5.391,5.685,5.685,0,0,0-.922-3.962,7.731,7.731,0,0,0-3.509-2.817c-.115-.049-.224-.112-.4-.2" transform="translate(-112.988)" fill="#6a4082"/>
    <path id="Path_2392" data-name="Path 2392" d="M182.724,148.816a6.181,6.181,0,0,1,.07.644q0,15.821-.009,31.642c0,.32.021.639.014.959-.009.422-.079.486-.5.486-.677,0-1.354-.007-2.03-.007l-30.627,0c-.586,0-.622-.034-.622-.652q0-10.124,0-20.249,0-6.12,0-12.24c0-.094,0-.188,0-.282-.011-.237.092-.332.336-.331q16.13.017,32.26.026h1.11m-27.577,27.329a.384.384,0,0,0,.378.456,5.382,5.382,0,0,0,.731.016c.787-.018,1.576-.089,2.36-.056,1.537.066,3.071.236,4.608.276a18.754,18.754,0,0,0,5.706-.428,11.087,11.087,0,0,0,4.6-2.5,10.819,10.819,0,0,0,2.893-4.642,12.219,12.219,0,0,0,.384-6.448,9.893,9.893,0,0,0-3.177-5.574,11.245,11.245,0,0,0-5.978-2.538,26.825,26.825,0,0,0-3.478-.227c-2.4-.03-4.8,0-7.206,0-.563,0-1.127-.016-1.69-.012-.259,0-.534.015-.569.438.19.045.365.1.542.125.222.038.449.045.669.089a1.449,1.449,0,0,1,1.262,1.38c.041.411.062.825.062,1.238,0,4.642.006,9.284-.014,13.926,0,1.012-.069,2.028-.174,3.034a1.385,1.385,0,0,1-1.368,1.385c-.178.028-.357.043-.543.065" transform="translate(-113.018 -112.846)" fill="#1e6f37"/>
    <path id="Path_2393" data-name="Path 2393" d="M61.626,50.649H56.02l2.644-8.115c.116.142.2.2.223.276.9,2.578,1.8,5.158,2.739,7.839" transform="translate(-42.487 -32.259)" fill="#1e6f37"/>
    <path id="Path_2394" data-name="Path 2394" d="M208.336,67.461a1.512,1.512,0,0,1,.312-.064c.713.028,1.428.031,2.137.1a5.169,5.169,0,0,1,3.9,2.567,7.233,7.233,0,0,1,1.106,4.4,3.581,3.581,0,0,1-2.27,3.289,5.478,5.478,0,0,1-4.429-.159,1.053,1.053,0,0,1-.651-.861,10.278,10.278,0,0,1-.129-1.344c-.013-2.5-.007-5-.006-7.493,0-.129.018-.259.031-.444" transform="translate(-157.982 -51.116)" fill="#6a4082"/>
    <path id="Path_2395" data-name="Path 2395" d="M208.3,32.656c0-1.163-.006-2.326,0-3.49,0-.6.049-.661.629-.694a12.355,12.355,0,0,1,1.853,0,2.945,2.945,0,0,1,1.8,1.071,4.424,4.424,0,0,1,1.082,2.368A5.347,5.347,0,0,1,213.5,34.9a3.306,3.306,0,0,1-1.5,1.819,1.157,1.157,0,0,1-.42.149,13.776,13.776,0,0,1-2.749,0c-.465-.05-.535-.139-.536-.608q0-1.8,0-3.6h.007" transform="translate(-157.977 -21.566)" fill="#6a4082"/>
    <path id="Path_2396" data-name="Path 2396" d="M198.812,197.115a11.04,11.04,0,0,1-3.441-.4,1.582,1.582,0,0,1-1.272-1.4c-.037-.411-.118-.82-.124-1.231q-.041-3.213-.05-6.425-.013-4.709-.007-9.418a3.411,3.411,0,0,1,.022-.45c.054-.4.189-.585.592-.637a14.66,14.66,0,0,1,1.8-.136,17.345,17.345,0,0,1,4.905.6,9.4,9.4,0,0,1,3.183,1.651,9.871,9.871,0,0,1,2.423,2.716,10.209,10.209,0,0,1,1.471,5.138,12.546,12.546,0,0,1-.89,5.181,6.9,6.9,0,0,1-2.71,3.223,9.417,9.417,0,0,1-5.9,1.59" transform="translate(-147.072 -134.252)" fill="#1e6f37"/>
    <path id="Path_2397" data-name="Path 2397" d="M494.223,173.251v1c-.638.146-181.671.134-182.183-.007v-1Z" transform="translate(-236.658 -131.398)" fill="#6a4082"/>
    <path id="Path_2398" data-name="Path 2398" d="M352.738,45.724a4.32,4.32,0,0,0-.1.469c-.143,1.284-.29,2.567-.412,3.852a11.1,11.1,0,0,0-.008,1.274c.012.575.069.64.611.821a.514.514,0,0,1,.291.251,2.265,2.265,0,0,1-.4.072c-.618,0-1.236-.007-1.854-.008a.842.842,0,0,0-.644.187.77.77,0,0,1-.479.111c-1.178.006-2.356,0-3.533-.007a2.809,2.809,0,0,1-.421-.065l-.025-.141c.142-.066.28-.14.426-.2a.3.3,0,0,0,.2-.45c-.482-1.24-.952-2.485-1.433-3.726-.181-.467-.259-.5-.778-.5-.773,0-1.546,0-2.318,0-.488,0-.509.008-.67.46-.355,1-.7,2-1.048,3a3.449,3.449,0,0,0-.106.391c-.138.629-.08.721.539.905a1.838,1.838,0,0,1,.287.144c-.137.28-.353.182-.528.179-.753-.015-1.5-.05-2.257-.062-.307,0-.616.044-.924.044a4.892,4.892,0,0,1-.589-.067l-.016-.117a1.774,1.774,0,0,1,.259-.162,3.266,3.266,0,0,1,.388-.119,2,2,0,0,0,1.429-1.316c.252-.709.5-1.417.765-2.123q1.073-2.9,2.154-5.8c.424-1.139.851-2.277,1.29-3.41a.655.655,0,0,1,.3-.369c.23-.081.4.092.5.293.231.464.475.925.664,1.407.586,1.489,1.138,2.992,1.726,4.481q1.084,2.747,2.21,5.477a4.008,4.008,0,0,0,.533.953c.43.546.84.544,1.516.373.6-.152.685-.537.742-1.007.184-1.532.37-3.063.541-4.6.161-1.437.3-2.875.459-4.313a1.711,1.711,0,0,1,.114-.35c.344-.054.454.181.559.374.509.932,1.021,1.863,1.5,2.812.631,1.26,1.23,2.536,1.841,3.805.134.278.254.563.392.839a3.394,3.394,0,0,0,.256.367c.1-.164.178-.264.231-.375q1.554-3.269,3.1-6.539c.166-.348.351-.689.547-1.021a2.609,2.609,0,0,1,.407-.389c.105.609.214,1.074.261,1.544.2,1.939.355,3.882.566,5.82.079.724.256,1.438.4,2.154a.938.938,0,0,0,.891.777c.172.024.389-.017.527.244a.992.992,0,0,1-.268.092c-.753,0-1.506.009-2.259,0-.5-.009-.495-.057-.465-.537a14.026,14.026,0,0,0-.035-1.611c-.027-.5-.074-1-.126-1.5q-.146-1.411-.31-2.82a1.814,1.814,0,0,0-.156-.379,3.2,3.2,0,0,0-.255.365q-1,2.057-1.985,4.118c-.3.626-.579,1.262-.885,1.885a2.489,2.489,0,0,1-.342.428,1.889,1.889,0,0,1-.409-.36,30.273,30.273,0,0,1-2.372-4.5c-.254-.621-.56-1.22-.843-1.829l-.169,0M344.4,46.811c-.228-.719-.4-1.385-.651-2.024a11.865,11.865,0,0,0-.782-2.063l-1.325,4.087Z" transform="translate(-255.243 -29.748)"/>
    <path id="Path_2399" data-name="Path 2399" d="M335.4,192.8c.191-.021.322-.048.452-.049,2.045-.006,4.095-.083,6.135.017a3.87,3.87,0,0,1,3.033,1.314,3.6,3.6,0,0,1,.767,2.6,3.071,3.071,0,0,1-2.023,2.784,1.566,1.566,0,0,0,.294.241,3.4,3.4,0,0,1,2.147,3.274,4.515,4.515,0,0,1-.261,1.876,3.644,3.644,0,0,1-2.749,2.23,13.573,13.573,0,0,1-2.875.156c-1.467.011-2.934.008-4.4.006-.166,0-.332-.029-.52-.047Zm2.276,12.723a2.608,2.608,0,0,0,.341.055c1.139.007,2.278.015,3.416.012a2.492,2.492,0,0,0,1.349-.461,2.2,2.2,0,0,0,1.049-2.385,2.573,2.573,0,0,0-2.734-2.253c-1-.036-2.007-.006-3.011,0a3.575,3.575,0,0,0-.41.051Zm0-11.042v4.292c.236.021.442.054.649.056.848.008,1.7.007,2.544.007a2.982,2.982,0,0,0,1.488-.4,2.079,2.079,0,0,0,1.069-1.743,1.793,1.793,0,0,0-.956-1.831,2.65,2.65,0,0,0-1.137-.361c-1.192-.046-2.387-.017-3.657-.017" transform="translate(-254.376 -146.163)"/>
    <path id="Path_2400" data-name="Path 2400" d="M556.27,207.158V192.771a2.734,2.734,0,0,1,.444-.075c1.816-.007,3.643-.129,5.445.026a5.676,5.676,0,0,1,4.6,2.611,8.862,8.862,0,0,1,1.093,6.513,6.956,6.956,0,0,1-1.173,2.868,5.3,5.3,0,0,1-2.592,2.14,6.075,6.075,0,0,1-1.746.318c-1.815.041-3.632.018-5.448.017-.188,0-.376-.018-.619-.031m2.33-12.743v11.056c.219.02.423.053.628.056.637.008,1.274,0,1.911.007a4.153,4.153,0,0,0,1.41-.231,4.245,4.245,0,0,0,2.737-2.99,7.217,7.217,0,0,0,.248-3.766,6.409,6.409,0,0,0-1.142-2.628,3.653,3.653,0,0,0-2.987-1.5c-.656-.007-1.312,0-1.969,0H558.6" transform="translate(-421.888 -146.105)"/>
    <path id="Path_2401" data-name="Path 2401" d="M998.177,192.758c.187-.019.353-.051.52-.052,1.777-.006,3.563-.118,5.329.022a5.743,5.743,0,0,1,4.581,2.541,8.631,8.631,0,0,1,1.253,6.046,7.167,7.167,0,0,1-2.374,4.642,4.872,4.872,0,0,1-3.335,1.241c-1.778,0-3.555.005-5.332,0-.2,0-.41-.027-.642-.044Zm2.339,12.728c.21.02.4.052.582.054.656.007,1.312.007,1.968,0a3.987,3.987,0,0,0,3.59-2.033,7.133,7.133,0,0,0-.108-7.219,3.788,3.788,0,0,0-3.258-1.862c-.771-.021-1.543-.009-2.315-.006a4.209,4.209,0,0,0-.459.053Z" transform="translate(-757.041 -146.117)"/>
    <path id="Path_2402" data-name="Path 2402" d="M749.52,201.04v6.207c-.738.019-1.437.011-2.181.007V192.813c.176-.017.342-.047.509-.048,2.046-.006,4.1-.076,6.137.019a4.052,4.052,0,0,1,2.741,1.058,4.156,4.156,0,0,1,1.3,2.77,3.7,3.7,0,0,1-2.193,3.743,2.9,2.9,0,0,0-.391.236c.884,2.212,1.87,4.338,2.7,6.526a6.943,6.943,0,0,1-2.441.082c-.445-1.059-.9-2.139-1.352-3.221-.349-.836-.7-1.671-1.029-2.516a.656.656,0,0,0-.734-.488c-.868.032-1.737.01-2.606.015-.13,0-.26.028-.466.051m.01-1.812a2.388,2.388,0,0,0,.42.084c1.079.008,2.159.033,3.238,0a2.409,2.409,0,0,0,1.745-.786,2.325,2.325,0,0,0,.559-2.563,2.269,2.269,0,0,0-2.169-1.47c-1.156-.024-2.312-.012-3.469-.008a1.362,1.362,0,0,0-.324.085Z" transform="translate(-566.799 -146.175)"/>
    <path id="Path_2403" data-name="Path 2403" d="M510.2,207.11a6.91,6.91,0,0,1-2.448.078l-1.543-3.709c-.289-.695-.585-1.386-.861-2.086a.6.6,0,0,0-.655-.428c-.868.025-1.737.008-2.605.013-.149,0-.3.028-.506.049v6.183h-2.2v-14.4a4.234,4.234,0,0,1,.462-.053c2.065,0,4.135-.085,6.195.022a3.908,3.908,0,0,1,3.268,1.673,4.126,4.126,0,0,1,.568,3.7,3.33,3.33,0,0,1-1.991,2.2,1.253,1.253,0,0,0-.206.1,1.624,1.624,0,0,0-.17.153c.861,2.174,1.861,4.31,2.7,6.511m-8.6-7.858c.23.02.436.051.641.053.869.007,1.737,0,2.606.011a3.7,3.7,0,0,0,1.349-.255,2.424,2.424,0,0,0,.766-3.929,2.5,2.5,0,0,0-1.625-.652c-1.12-.012-2.24-.01-3.36-.007a2.135,2.135,0,0,0-.378.068Z" transform="translate(-378.741 -146.163)"/>
    <path id="Path_2404" data-name="Path 2404" d="M388.492,199.374a8.907,8.907,0,0,1,.96-4.306,5.5,5.5,0,0,1,3.08-2.827,6.853,6.853,0,0,1,2.269-.329,6.379,6.379,0,0,1,2.028.333,5.607,5.607,0,0,1,3.305,3.292,9.534,9.534,0,0,1,.686,4.251,8.666,8.666,0,0,1-1.61,4.931,5.049,5.049,0,0,1-3.114,2.042,6.964,6.964,0,0,1-2.23.124,5.052,5.052,0,0,1-3.605-1.829,8.7,8.7,0,0,1-1.769-5.683m9.934.011a11.085,11.085,0,0,0-.073-1.157c-.089-.531-.217-1.057-.349-1.581a4.314,4.314,0,0,0-1.422-2.269,2.755,2.755,0,0,0-4.035.206,5.05,5.05,0,0,0-1.293,2.423,9.72,9.72,0,0,0-.02,4.809,4.968,4.968,0,0,0,1.523,2.613,2.626,2.626,0,0,0,3,.523,3.407,3.407,0,0,0,1.4-1.182,8.305,8.305,0,0,0,1.271-4.386" transform="translate(-294.641 -145.551)"/>
    <path id="Path_2405" data-name="Path 2405" d="M445.383,203.248l-1.26,4.028h-2.082c.163-.559.293-1.053.451-1.538.7-2.144,1.406-4.285,2.1-6.429q.985-3.024,1.953-6.053a.525.525,0,0,1,.574-.444c.559.017,1.119,0,1.679.006.412,0,.5.063.629.453.411,1.245.814,2.492,1.222,3.738q.774,2.363,1.551,4.725.71,2.171,1.413,4.344c.118.361.241.72.383,1.141a3.017,3.017,0,0,1-.49.1c-.5.009-1-.012-1.505.006a.5.5,0,0,1-.561-.382q-.394-1.179-.806-2.352c-.158-.452-.33-.9-.495-1.343Zm4.291-1.768-1.767-5.416h-.132c-.589,1.788-1.177,3.576-1.752,5.416Z" transform="translate(-335.254 -146.232)"/>
    <path id="Path_2406" data-name="Path 2406" d="M646.932,201.644a4.123,4.123,0,0,1,.58,0c.342.05.678.134,1.019.2.488.089.619.3.475.766A7.531,7.531,0,0,1,647.863,205a4.6,4.6,0,0,1-2.815,1.776,7.3,7.3,0,0,1-1.82.174,5.114,5.114,0,0,1-4.214-2.134,8.257,8.257,0,0,1-1.407-3.326,13.086,13.086,0,0,1-.1-3.808,6.861,6.861,0,0,1,1.693-3.929,5.033,5.033,0,0,1,2.913-1.649,9.444,9.444,0,0,1,1.892-.146,4.773,4.773,0,0,1,4.54,2.913,9.535,9.535,0,0,1,.47,1.245c.139.438.022.59-.431.671-.34.061-.679.132-1.016.206-.52.113-.658.019-.865-.48a15.554,15.554,0,0,0-.67-1.407,2.871,2.871,0,0,0-1.682-1.344,2.584,2.584,0,0,0-2.541.564,4.787,4.787,0,0,0-1.622,2.8,9.92,9.92,0,0,0-.04,4.482,5.253,5.253,0,0,0,1.464,2.771,2.637,2.637,0,0,0,3.916-.029,4.873,4.873,0,0,0,1.115-1.873c.1-.27.186-.542.288-.839" transform="translate(-483.432 -145.585)"/>
    <path id="Path_2407" data-name="Path 2407" d="M697.674,205.623a36.771,36.771,0,0,0,3.694.057c1.213.027,2.426.006,3.691.006v1.576a.2.2,0,0,1-.03.035.094.094,0,0,1-.049.027q-4.6.015-9.206.026a1.7,1.7,0,0,1-.286-.03.593.593,0,0,1-.137-.078V192.886c.221-.014.408-.036.6-.036q4.228,0,8.457,0c.487,0,.509.03.517.536,0,.27-.006.541,0,.811.007.24-.1.362-.338.367q-.232,0-.463.005-2.954,0-5.908,0c-.168,0-.337.02-.54.032v4.256c.282.025.562.071.841.072,1.467.006,2.935,0,4.4,0,.149,0,.3.013.477.022v1.587c-.161.015-.325.044-.488.045-1.526,0-3.051,0-4.576,0-.207,0-.413.02-.654.032Z" transform="translate(-527.37 -146.261)"/>
    <path id="Path_2408" data-name="Path 2408" d="M946.065,192.995h9.56v1.649c-1.2.074-2.387.029-3.575.035s-2.384,0-3.612,0v4.293c.277.024.557.07.837.07,1.487,0,2.975-.005,4.462-.009h.412a13.012,13.012,0,0,1,.007,1.663h-5.7v5.022a3.509,3.509,0,0,0,.512.072c1.777.006,3.555,0,5.332,0h1.534v1.625h-9.75c-.032-4.8-.011-9.576-.016-14.426" transform="translate(-717.516 -146.372)"/>
    <path id="Path_2409" data-name="Path 2409" d="M702.431,107.667a1.545,1.545,0,0,1,.314-.044c.73.046,1.46.1,2.189.15a3.144,3.144,0,0,0,.347.006c1.174-.051,2.35-.078,3.521-.165a6.246,6.246,0,0,1,3.452.771,6.89,6.89,0,0,1,3.334,3.408,7.029,7.029,0,0,1,.422,4.528,4.638,4.638,0,0,1-.884,1.807,7.872,7.872,0,0,1-3.036,2.439,8.416,8.416,0,0,1-1.951.489,16.439,16.439,0,0,1-3.115.138c-.864-.03-1.724-.153-2.587-.209-.5-.033-1-.013-1.5-.022a.9.9,0,0,1-.51-.139c.076-.06.145-.156.23-.175.9-.2,1.026-.672,1.1-1.471.021-.21,0-.424,0-.637q0-4.605,0-9.21a3.965,3.965,0,0,0-.006-.405.877.877,0,0,0-.626-.819c-.247-.081-.489-.18-.733-.271l.041-.168m3.251,1.074c-.008.177-.023.347-.023.518,0,2.048-.008,4.1,0,6.144a24.255,24.255,0,0,0,.148,3.759.98.98,0,0,0,.594.85,4.15,4.15,0,0,0,2.369.364c.247-.044.494-.094.742-.129a5.44,5.44,0,0,0,2.586-1.086,5.371,5.371,0,0,0,1.864-3.609,6.406,6.406,0,0,0-.172-2.353,5.434,5.434,0,0,0-1.844-3.19,7.108,7.108,0,0,0-3.279-1.507,4.874,4.874,0,0,0-2.984.24" transform="translate(-532.709 -81.605)"/>
    <path id="Path_2410" data-name="Path 2410" d="M722.546,37.807a2.536,2.536,0,0,1,.549.006,5.915,5.915,0,0,0,1.783.049,25.047,25.047,0,0,1,3.06-.054,3.042,3.042,0,0,1,2.779,2.532,2.689,2.689,0,0,1-.338,1.667c-.263.444-.6.842-.91,1.262-.065.089-.121.184-.2.3a1.1,1.1,0,0,0,.242.181,3.724,3.724,0,0,1,1.832,5.735,3.535,3.535,0,0,1-3.089,1.62c-1.68-.016-3.36.006-5.04.007a4.581,4.581,0,0,1-.465-.045c-.006-.054-.013-.108-.019-.163.147-.051.292-.112.442-.153a.987.987,0,0,0,.809-.994c.007-.212.021-.424.021-.637q0-4.81,0-9.619c0-.039,0-.077,0-.116,0-.888-.057-.949-.918-1.2-.184-.053-.443,0-.54-.387m3.417,8.893c0,.637-.016,1.274.007,1.91a1.91,1.91,0,0,0,.165.776,1.808,1.808,0,0,0,2.937.632,2.636,2.636,0,0,0,.991-2.722,3.834,3.834,0,0,0-3.52-3.146c-.522-.031-.575.015-.579.524,0,.675,0,1.351,0,2.026m.043-3.362c.289,0,.554.009.817,0a1.891,1.891,0,0,0,1.571-.835,2.708,2.708,0,0,0,.315-2.682,1.977,1.977,0,0,0-2.7-1.185Z" transform="translate(-547.996 -28.651)"/>
    <path id="Path_2411" data-name="Path 2411" d="M882.317,198.926v1.616h-5.737c-.061.618-.018,1.172-.022,1.722s0,1.082,0,1.623c0,.56,0,1.12,0,1.681,0,.54,0,1.08,0,1.607a5.451,5.451,0,0,1-2.31.053v-14.4c3.1-.009,6.157-.03,9.253.011v1.687c-1.168.049-2.32.014-3.47.022-1.134.008-2.269,0-3.441,0v4.238a1.636,1.636,0,0,0,.881.121c1.487,0,2.974-.006,4.461-.008.112,0,.224.016.393.029" transform="translate(-663.045 -146.232)"/>
    <path id="Path_2412" data-name="Path 2412" d="M807.252,192.826c0,.507,0,.947,0,1.387a.274.274,0,0,1-.286.3c-.135.008-.27.011-.405.012l-2.839,0h-.613v12.72c-.786.1-1.526.023-2.338.059V194.516H796.69v-1.694c1.742-.078,3.49-.011,5.235-.016s3.5-.055,5.326.019" transform="translate(-604.228 -146.212)"/>
    <path id="Path_2413" data-name="Path 2413" d="M345.6,121.894a27.255,27.255,0,0,1-4.439-.136c.143-.107.225-.208.327-.238.617-.18.761-.631.757-1.208-.013-2.028-.012-4.055-.014-6.082,0-1.39,0-2.78,0-4.17,0-.8-.175-1-.99-1.123-.187-.028-.4-.009-.462-.306a.986.986,0,0,1,.293-.1c1.621.008,3.241.012,4.862.044a5.287,5.287,0,0,1,1.884.221,2.794,2.794,0,0,1,1.891,2.476,4.419,4.419,0,0,1-1.5,3.894,2.821,2.821,0,0,1-1.89.763c-.405.007-.811.028-1.216.024-.2,0-.432.022-.538-.287a1.016,1.016,0,0,1,.312-.1,2.72,2.72,0,0,0,3.063-2.336,3.527,3.527,0,0,0-1.35-3.543,1.883,1.883,0,0,0-2.052-.332.478.478,0,0,0-.354.51c.008.656,0,1.313,0,1.97,0,2.472-.014,4.943.017,7.414a8.987,8.987,0,0,0,.271,1.761.765.765,0,0,0,.727.569c.16.021.357-.018.4.309" transform="translate(-258.458 -82.315)"/>
    <path id="Path_2414" data-name="Path 2414" d="M644.526,50.729h3.107c-.124.115-.185.215-.271.245-.55.189-.67.578-.664,1.129.028,2.452.016,4.9.015,7.357a9.507,9.507,0,0,1-.043,1.04,5.367,5.367,0,0,1-.2.748,4.944,4.944,0,0,1-.665-.457c-1.03-1.017-2.069-2.026-3.063-3.077-1.22-1.29-2.4-2.62-3.6-3.925-.158-.171-.228-.459-.578-.488a2.319,2.319,0,0,0-.04.33q.045,1.705.1,3.411c.029.886.068,1.772.1,2.657a.9.9,0,0,0,.833,1,.916.916,0,0,1,.43.222,6.23,6.23,0,0,1-1.75.092c-.563.042-1.133,0-1.743-.013.085-.292.286-.274.431-.33.57-.221.68-.379.68-.987q0-4.316,0-8.632a.621.621,0,0,1,.153-.447c.206-.151.4,0,.549.167.715.758,1.435,1.511,2.142,2.275.8.863,1.588,1.737,2.38,2.607.818.9,1.633,1.8,2.454,2.695a1.212,1.212,0,0,0,.251.169c.058-.056.11-.082.109-.107-.027-.69-.086-1.381-.086-2.071,0-1.428.035-2.856.047-4.284a.953.953,0,0,0-.634-1c-.159-.059-.311-.137-.466-.206l.019-.121" transform="translate(-482.732 -38.334)"/>
    <path id="Path_2415" data-name="Path 2415" d="M799.556,129.519c0-.794,0-1.556,0-2.319,0-1.062-.005-2.124,0-3.187,0-.27.017-.54.038-.808a1,1,0,0,0-.707-1.175.768.768,0,0,1-.359-.285h3.165a4.444,4.444,0,0,1-.492.314.826.826,0,0,0-.522.87c.015,2.491.01,4.983.008,7.474,0,.367,0,.735-.036,1.1a5.471,5.471,0,0,1-.186.747,3.37,3.37,0,0,1-.574-.365c-1.387-1.4-2.783-2.786-4.139-4.213-1-1.049-1.935-2.152-2.9-3.228a1.377,1.377,0,0,0-.283-.172,2.75,2.75,0,0,0-.049.371c.026,1.1.051,2.2.087,3.3q.047,1.416.118,2.831c.029.57.265.812.836.93a5.5,5.5,0,0,1,.54.178c-.154.112-.212.189-.267.188-1.1-.02-2.206-.049-3.308-.077l-.026-.123c.125-.058.246-.124.374-.172.616-.231.727-.377.727-1.015q0-4.23,0-8.459c0-.217-.116-.494.158-.626.3-.145.46.115.624.292q2.5,2.7,4.986,5.4c.653.709,1.3,1.424,1.957,2.13.054.058.158.071.236.1" transform="translate(-599.529 -92.186)"/>
    <path id="Path_2416" data-name="Path 2416" d="M895.5,61.656c.943-.6.942-.6.942-1.713,0-2.375-.017-4.751.013-7.126.007-.571-.145-.93-.711-1.075-.065-.016-.115-.085-.267-.2a4.286,4.286,0,0,1,.508-.068c1.235.006,2.47.022,3.7.027a10.713,10.713,0,0,1,1.551-.018,5.379,5.379,0,0,1,4.164,2.889,4.938,4.938,0,0,1,.176,4.521,5.153,5.153,0,0,1-2.929,2.584,6.408,6.408,0,0,1-2.388.354c-1.176-.01-2.351-.074-3.526-.111-.289-.009-.579,0-.868-.009a3.315,3.315,0,0,1-.368-.052m3.936-9.636c-.325.02-.576.028-.826.051-.617.058-.668.116-.669.756q-.006,3.013-.006,6.026c0,.425.019.849.029,1.274a.988.988,0,0,0,.7.958,3.733,3.733,0,0,0,1.714.156c2.768-.194,4.005-2.124,3.975-4.54a7.107,7.107,0,0,0-.174-.967,3.728,3.728,0,0,0-.609-1.547,5.044,5.044,0,0,0-4.132-2.167" transform="translate(-679.153 -39.022)"/>
    <path id="Path_2417" data-name="Path 2417" d="M413.589,132.728c.044-.115.048-.147.058-.15.8-.194.95-.748.94-1.49-.03-2.277-.009-4.554-.008-6.831,0-.174-.011-.348,0-.521a.745.745,0,0,0-.587-.867.5.5,0,0,1-.285-.257,2.671,2.671,0,0,1,.4-.058c1.253.006,2.506.021,3.759.027a12.694,12.694,0,0,1,1.607,0,5.409,5.409,0,0,1,4.623,5.27,4.792,4.792,0,0,1-3.5,4.741,8.148,8.148,0,0,1-2.1.32c-1.172.019-2.346-.077-3.52-.119-.327-.012-.656,0-.983-.011-.124,0-.247-.029-.4-.049m2.467-5.451h-.005c0,1.1,0,2.2,0,3.3,0,.25.027.5.049.751a.824.824,0,0,0,.588.78,2.469,2.469,0,0,0,.661.191,7.9,7.9,0,0,0,1.675-.045,3.676,3.676,0,0,0,2.989-2.193,6.2,6.2,0,0,0,.372-1.212,4.667,4.667,0,0,0-.659-3.5,5.023,5.023,0,0,0-5.129-2.2c-.461.05-.539.164-.541.645,0,1.16,0,2.319,0,3.479" transform="translate(-313.676 -92.942)"/>
    <path id="Path_2418" data-name="Path 2418" d="M982.084,132.436a3.7,3.7,0,0,1-2.054.227,3.552,3.552,0,0,1-2.049-1.422c-.514-.7-1.041-1.392-1.551-2.1a2,2,0,0,0-1.795-.867c-.358.013-.453.089-.444.453.022.867.068,1.733.118,2.6.028.486.184.878.778.876a.281.281,0,0,1,.152.075c.024.019.024.067.061.186a4.668,4.668,0,0,1-.546.027,27.774,27.774,0,0,1-2.785-.078c.023-.1.023-.129.033-.132.712-.245.763-.829.761-1.453q-.008-3.651,0-7.3c0-.678-.089-.816-.731-1.077-.1-.04-.192-.092-.373-.18a1.078,1.078,0,0,1,.268-.1c1.255.01,2.51.017,3.765.045a5.61,5.61,0,0,1,1.149.124,2.431,2.431,0,0,1,1.748,3.1,4.89,4.89,0,0,1-1.457,2.314c.2.267.382.529.579.783.662.855,1.291,1.739,2.008,2.546a5.944,5.944,0,0,0,1.338.986,1.924,1.924,0,0,0,.662.131l.365.061q0,.088,0,.177m-7.9-5.167a2.664,2.664,0,0,0,1.758.207,1.382,1.382,0,0,0,.91-.746,3.1,3.1,0,0,0-.674-3.606,1.756,1.756,0,0,0-1.553-.45.473.473,0,0,0-.445.507c.009,1.367,0,2.734,0,4.087" transform="translate(-736.927 -92.655)"/>
    <path id="Path_2419" data-name="Path 2419" d="M559.178,122.134c1.576.041,3.158.006,4.725.142a2.374,2.374,0,0,1,2.073,3.156,4.36,4.36,0,0,1-1.07,1.9c-.114.129-.232.253-.349.38a.526.526,0,0,0,.047.177c.831,1.064,1.642,2.145,2.512,3.175a4.545,4.545,0,0,0,1.178.914,2.976,2.976,0,0,0,.878.2c.1.021.2.048.326.079-.055.094-.073.169-.111.182a2.955,2.955,0,0,1-3.335-.527,19.873,19.873,0,0,1-1.543-1.869c-.353-.433-.7-.873-1.068-1.291a1.839,1.839,0,0,0-1.545-.491c-.216,0-.309.143-.3.345.038.943.07,1.886.125,2.829.025.428.215.735.709.747.081,0,.161.076.3.145-.4.3-.784.088-1.14.122a6.594,6.594,0,0,1-1.1.01c-.371-.027-.761.1-1.121-.088.019-.063.021-.122.041-.129.655-.218.766-.743.765-1.337q-.005-3.156,0-6.312c0-.386-.014-.773,0-1.158a.86.86,0,0,0-.65-.963,3.019,3.019,0,0,1-.386-.186l.042-.148m2.426,5.158a2.654,2.654,0,0,0,1.865.115,1.216,1.216,0,0,0,.786-.719,2.947,2.947,0,0,0-.212-3.029,1.927,1.927,0,0,0-1.93-1.029c-.43.054-.509.166-.509.6,0,1.33,0,2.659,0,4.058" transform="translate(-424.062 -92.629)"/>
    <path id="Path_2420" data-name="Path 2420" d="M850.334,61.466a31.122,31.122,0,0,1-3.328-.045c.126-.136.172-.231.24-.252a.9.9,0,0,0,.6-.842,4.187,4.187,0,0,0,.025-.635q0-3.5,0-7.008c0-.893-.027-.935-.852-1.285a2.048,2.048,0,0,1-.25-.167,1.513,1.513,0,0,1,.316-.085c1.235.008,2.47.016,3.7.036a4.083,4.083,0,0,1,1.634.314,2.185,2.185,0,0,1,1.323,1.889,3.674,3.674,0,0,1-.906,2.67c-.182.244-.395.466-.626.736.746.949,1.492,1.879,2.215,2.827a4.992,4.992,0,0,0,1.3,1.217,1.535,1.535,0,0,0,1.187.347c.074-.016.165.044.272.076-.044.088-.057.165-.092.177a3.124,3.124,0,0,1-3.833-1.009c-.592-.736-1.147-1.5-1.709-2.262a2.019,2.019,0,0,0-1.832-.9c-.347.021-.435.079-.427.4.02.847.058,1.694.092,2.541.022.554.186.991.846,1.023.043,0,.082.071.122.108l-.022.135M849.3,56.294a2.956,2.956,0,0,0,1.767.136,1.155,1.155,0,0,0,.81-.6,3.02,3.02,0,0,0-.8-3.885,1.57,1.57,0,0,0-1.425-.273.45.45,0,0,0-.357.506c.02,1.349.009,2.7.009,4.113" transform="translate(-642.209 -38.791)"/>
    <path id="Path_2421" data-name="Path 2421" d="M774.884,55.574a4.477,4.477,0,0,1-2.814,4.48,7.17,7.17,0,0,1-2.511.615,5.6,5.6,0,0,1-4.314-1.9,4.961,4.961,0,0,1-1.432-3.14,5.34,5.34,0,0,1,.667-3.212,4.3,4.3,0,0,1,1.8-1.667,6.828,6.828,0,0,1,3.775-.915,5.051,5.051,0,0,1,4.363,3.247,5.58,5.58,0,0,1,.461,2.494m-5.842-5.053a3.478,3.478,0,0,0-2.409,1.117,4.606,4.606,0,0,0-1.285,3.65,5.666,5.666,0,0,0,.8,2.69,3.937,3.937,0,0,0,3.154,2.09,3.318,3.318,0,0,0,3.25-1.729,5.527,5.527,0,0,0-.284-6.125,3.564,3.564,0,0,0-3.23-1.692" transform="translate(-579.278 -37.776)"/>
    <path id="Path_2422" data-name="Path 2422" d="M487.381,56.786c.927,1.155,1.8,2.281,2.721,3.371a4.142,4.142,0,0,0,1,.78,1.314,1.314,0,0,0,.989.244c.082-.018.186.064.276.152a3.126,3.126,0,0,1-1.993.309,2.786,2.786,0,0,1-1.592-.884c-.389-.453-.762-.92-1.132-1.389-.346-.44-.676-.892-1.018-1.335a1.916,1.916,0,0,0-1.715-.781c-.364.02-.44.072-.431.451.021.866.06,1.732.107,2.6.027.483.185.874.771.894.072,0,.141.085.2.192a21.951,21.951,0,0,1-3.4.036c.141-.147.188-.24.257-.26a.884.884,0,0,0,.606-.835,3.034,3.034,0,0,0,.026-.462q0-3.563,0-7.126c0-.976-.011-.994-.9-1.371a.981.981,0,0,1-.168-.136c.087-.043.146-.1.2-.1,1.274.009,2.548.016,3.821.043a4.434,4.434,0,0,1,1.58.295,2.508,2.508,0,0,1,1.306,2.858,5.116,5.116,0,0,1-1.232,2.132c-.079.081-.151.168-.289.323m-2.909-.531a3.248,3.248,0,0,0,1.735.189,1.242,1.242,0,0,0,.891-.667,3.036,3.036,0,0,0-.852-3.833,1.536,1.536,0,0,0-1.364-.294.49.49,0,0,0-.416.531c.016,1.349.007,2.7.007,4.074" transform="translate(-365.553 -38.783)"/>
    <path id="Path_2423" data-name="Path 2423" d="M973.89,55.628a4.407,4.407,0,0,1-.823,2.886,4.354,4.354,0,0,1-1.568,1.344,6.405,6.405,0,0,1-2.981.822,5.657,5.657,0,0,1-4.6-2.276,4.842,4.842,0,0,1-1.076-2.81,5.056,5.056,0,0,1,.74-3.305,4.525,4.525,0,0,1,1.712-1.523,6.866,6.866,0,0,1,3.6-.927,5.059,5.059,0,0,1,4.5,3.147,5.568,5.568,0,0,1,.5,2.643m-5.7-5.085a2.981,2.981,0,0,0-1.362.292,4,4,0,0,0-2.321,2.857,5.852,5.852,0,0,0-.061,2.237,5.138,5.138,0,0,0,2,3.459,3.264,3.264,0,0,0,1.984.712,3.509,3.509,0,0,0,3.14-1.747,5.744,5.744,0,0,0-.638-6.583,3.4,3.4,0,0,0-2.739-1.226" transform="translate(-730.225 -37.79)"/>
    <path id="Path_2424" data-name="Path 2424" d="M924.445,207.326c-.764-.009-1.5.032-2.268-.034V192.963a5.723,5.723,0,0,1,2.228-.068c.125.436.172,13.216.04,14.431" transform="translate(-699.4 -146.239)"/>
    <path id="Path_2425" data-name="Path 2425" d="M851.5,207.264a6.756,6.756,0,0,1-2.267-.042V192.875c.759-.073,1.493-.027,2.208-.028.145.489.186,13.565.058,14.417" transform="translate(-644.079 -146.249)"/>
    <path id="Path_2426" data-name="Path 2426" d="M808.74,50.005a1.14,1.14,0,0,1,.655.736c.473,1.2.924,2.411,1.4,3.611.638,1.613,1.3,3.217,1.934,4.829a1.445,1.445,0,0,0,.975.984,1.657,1.657,0,0,1,.309.184,1.762,1.762,0,0,1-.336.094,25.933,25.933,0,0,1-2.825-.038l.477-.433c-.1-.253-.2-.518-.3-.782q-.423-1.107-.846-2.214a.573.573,0,0,0-.645-.439c-.576.037-1.157.018-1.736,0a.538.538,0,0,0-.591.43q-.429,1.318-.892,2.624a.4.4,0,0,0,.183.54c.155.1.32.178.6.33a2.487,2.487,0,0,1-.443.079c-.923-.055-1.846-.118-2.769-.179l-.026-.115a3.06,3.06,0,0,1,.377-.168,1.545,1.545,0,0,0,1.083-1.025c.84-2.317,1.7-4.625,2.559-6.937.187-.506.372-1.012.569-1.514.075-.192.178-.373.288-.6m1,5.793a24.261,24.261,0,0,0-1.08-2.923,10.933,10.933,0,0,0-.543,1.513,6.655,6.655,0,0,0-.455,1.5,4.364,4.364,0,0,0,2.077-.094" transform="translate(-609.67 -37.925)"/>
    <path id="Path_2427" data-name="Path 2427" d="M600.972,60.556l-3.041.122c.047-.134.05-.2.085-.233.391-.358.378-.35.178-.844-.289-.714-.553-1.439-.828-2.159-.048-.126-.1-.251-.145-.377a.517.517,0,0,0-.573-.368c-.578.026-1.158,0-1.737.007-.435,0-.5.048-.638.441-.3.872-.587,1.75-.891,2.621a.41.41,0,0,0,.2.539c.142.089.293.162.561.308-.656.21-1.163-.1-1.685-.06a4.873,4.873,0,0,1-1.506,0l-.023-.127a1.617,1.617,0,0,1,.321-.163,1.64,1.64,0,0,0,1.193-1.146c.5-1.436,1.025-2.867,1.55-4.3.512-1.393,1.035-2.782,1.559-4.171a3.526,3.526,0,0,1,.235-.437c.336-.013.43.229.536.418a6.584,6.584,0,0,1,.383.842c.7,1.816,1.394,3.637,2.1,5.45.322.826.685,1.635,1.01,2.46a1.407,1.407,0,0,0,.949.935,1.227,1.227,0,0,1,.242.131l-.034.1M594.7,56.019a3.735,3.735,0,0,0,2.1-.08l-.992-2.962c-.114.109-.2.15-.216.212-.3.927-.589,1.857-.9,2.83" transform="translate(-448.172 -38.084)"/>
    <path id="Path_2428" data-name="Path 2428" d="M481.969,131.465a1.78,1.78,0,0,1-.366.089c-.93-.043-1.859-.094-2.789-.142l-.105-.146a1.612,1.612,0,0,1,.256-.092,1.794,1.794,0,0,0,1.393-1.385c.383-1.131.793-2.254,1.206-3.375q.879-2.387,1.782-4.765a6.713,6.713,0,0,1,.3-.613,1.071,1.071,0,0,1,.634.707c.322.806.623,1.62.943,2.426.811,2.041,1.631,4.079,2.442,6.12a1.349,1.349,0,0,0,.91.9.447.447,0,0,1,.27.246l-3.048.121c.008-.122,0-.176.015-.193.447-.378.434-.372.224-.894-.287-.715-.55-1.439-.826-2.159-.055-.144-.124-.282-.181-.425a.451.451,0,0,0-.492-.308q-.925.026-1.852,0a.505.505,0,0,0-.555.394q-.448,1.341-.914,2.676a.416.416,0,0,0,.212.536c.136.088.286.153.537.285m2.687-4.614-1.009-3.017c-.115.121-.216.176-.231.249-.192.966-.681,1.849-.857,2.824a4.621,4.621,0,0,0,2.1-.055" transform="translate(-363.063 -91.797)"/>
    <path id="Path_2429" data-name="Path 2429" d="M560.584,51.35c0,.485.033.926-.009,1.36a11.428,11.428,0,0,1-.247,1.29c-.006.029-.1.039-.2.077-.064-.163-.136-.313-.184-.471a2.8,2.8,0,0,0-2.016-1.967,4.127,4.127,0,0,0-4.939,2.538,5.117,5.117,0,0,0-.2,2.337,5.272,5.272,0,0,0,1.863,3.358A5.111,5.111,0,0,0,556.967,61a2.8,2.8,0,0,0,3.175-1.648c.076-.2.1-.466.475-.479.108.807-.294,1.538-.253,2.293-.087.055-.133.108-.183.112a38.809,38.809,0,0,1-4.033.277,4.484,4.484,0,0,1-4.2-2.758,6.035,6.035,0,0,1-.1-5.049,4.355,4.355,0,0,1,3.332-2.666,7.408,7.408,0,0,1,2.983-.045c.773.144,1.562.208,2.42.318" transform="translate(-418.152 -38.606)"/>
    <path id="Path_2430" data-name="Path 2430" d="M637.438,132.332a21.865,21.865,0,0,1-4.467.331,4.416,4.416,0,0,1-3.685-2.268,5.659,5.659,0,0,1-.821-3.084,6.22,6.22,0,0,1,.493-2.534,4.443,4.443,0,0,1,3.341-2.588,12.534,12.534,0,0,1,4.145.107c.4.048.8.118,1.183.176a5.2,5.2,0,0,1-.292,2.691c-.237-.017-.238-.22-.284-.377a3,3,0,0,0-2.814-2.208,3.438,3.438,0,0,0-1.415.215,3.963,3.963,0,0,0-2.887,3,5.387,5.387,0,0,0,3.623,6.181,2.95,2.95,0,0,0,3.1-.667,4.13,4.13,0,0,0,.617-.968c.093-.163.118-.381.453-.327.061.788-.333,1.518-.29,2.315" transform="translate(-476.642 -92.565)"/>
    <path id="Path_2431" data-name="Path 2431" d="M1005.543,122.648h3.229c-.488.508-.182.882.038,1.272.633,1.121,1.262,2.245,1.913,3.4.113-.092.2-.134.248-.206.572-.916,1.136-1.835,1.7-2.754.061-.1.129-.192.186-.293.244-.435.557-.872-.106-1.339a2.7,2.7,0,0,1,.466-.1c.732,0,1.465,0,2.2.011.064,0,.128.052.264.111-.26.2-.475.34-.669.509s-.356.353-.532.532a14.233,14.233,0,0,0-2.93,4.475,2.181,2.181,0,0,0-.144.783c-.019.733.028,1.469-.018,2.2a1.1,1.1,0,0,0,.707,1.135c.188.1.46.081.588.421-1.216.038-2.383.049-3.55,0l-.04-.136c.134-.086.265-.178.4-.255a.726.726,0,0,0,.406-.706c-.013-.926,0-1.853-.01-2.78a1.355,1.355,0,0,0-.122-.555,19.231,19.231,0,0,0-3.456-5.036c-.21-.218-.451-.405-.771-.69" transform="translate(-762.627 -93.004)"/>
    <path id="Path_2432" data-name="Path 2432" d="M458.555,59.773c-.074.448-.126.9-.229,1.343-.064.275-.27.336-.724.306-.5-.034-1-.079-1.5-.089-.849-.017-1.7-.017-2.549-.012-.21,0-.419.057-.629.075a.635.635,0,0,1-.442-.107,1.058,1.058,0,0,1,.2-.14,1.094,1.094,0,0,0,.741-1.124c0-2.569-.007-5.138,0-7.707a.764.764,0,0,0-.465-.787,3.687,3.687,0,0,1-.38-.247,2.6,2.6,0,0,1,.441-.094c1.159,0,2.317.029,3.476.016.569-.006,1.137-.081,1.782-.131a13.978,13.978,0,0,1-.254,1.577c-.01.084-.136.153-.26.284-.1-.186-.164-.314-.227-.444a1.15,1.15,0,0,0-1.1-.717c-.476,0-.953,0-1.469,0v3.8a3.756,3.756,0,0,0,1.648,0,10.606,10.606,0,0,0,1.488-.7c-.019.338-.024.618-.054.9-.043.4-.108.8-.157,1.2-.019.157-.022.346-.227.332a.378.378,0,0,1-.279-.226c-.085-.616-.473-.77-1.025-.773-.437,0-.874-.069-1.376-.113-.019.252-.043.436-.044.621-.006.927.014,1.855-.018,2.781a1.012,1.012,0,0,0,.428.891,1.761,1.761,0,0,0,2.754-.53,1.771,1.771,0,0,1,.273-.292l.165.1" transform="translate(-343.175 -38.736)"/>
    <path id="Path_2433" data-name="Path 2433" d="M383.249,132.092c1-.272,1.046-1.013,1.036-1.831-.027-2.143-.021-4.286-.01-6.429.005-1.08.022-1.08-.819-1.724a2.365,2.365,0,0,1,.4-.075c1.313,0,2.625.02,3.938.007a6.532,6.532,0,0,0,.955-.159c.107-.017.216-.017.425-.031a6.377,6.377,0,0,1-.521,1.954,2.789,2.789,0,0,1-.257-.4,1.177,1.177,0,0,0-1.206-.811h-1.355v3.834a9.433,9.433,0,0,0,1.06.031,3.789,3.789,0,0,0,1.066-.205,6.131,6.131,0,0,0,.96-.6c0,.35.021.576,0,.8-.054.478-.122.956-.208,1.429-.019.1-.138.191-.211.285-.09-.085-.245-.16-.259-.257-.088-.585-.462-.738-.988-.752-.439-.011-.877-.077-1.35-.123a2.179,2.179,0,0,0-.094.42c-.007,1.043,0,2.086-.011,3.128a.829.829,0,0,0,.294.658,1.78,1.78,0,0,0,2.847-.42.626.626,0,0,1,.122-.191.259.259,0,0,1,.2-.052.215.215,0,0,1,.122.165,9.546,9.546,0,0,1-.24,1.245c-.1.337-.438.26-.7.253-.538-.016-1.075-.072-1.613-.081-.868-.015-1.737-.01-2.606,0-.17,0-.339.065-.511.078a2.87,2.87,0,0,1-.4-.024l-.06-.117" transform="translate(-290.665 -92.414)"/>
    <path id="Path_2434" data-name="Path 2434" d="M767.419,130.608c-.073.433-.131.884-.229,1.326-.064.287-.329.3-.564.289-.422-.018-.844-.074-1.266-.08-1-.015-2.008-.014-3.012-.009-.19,0-.379.057-.57.074-.138.012-.277,0-.416,0l-.027-.114a1.06,1.06,0,0,1,.206-.136,1.12,1.12,0,0,0,.774-1.161q0-1.594,0-3.188c0-1.43-.014-2.86.007-4.289a.932.932,0,0,0-.623-1.047c-.047-.017-.08-.077-.115-.12-.009-.011,0-.035,0-.1a1.951,1.951,0,0,1,.3-.044c1.178,0,2.356.017,3.534.021a2.984,2.984,0,0,0,1.475-.2c.053-.028.142.011.294.028a5.545,5.545,0,0,1-.528,1.965c-.135-.267-.216-.407-.278-.556a1.022,1.022,0,0,0-.878-.668c-.531-.044-1.069-.011-1.646-.011V126.4a8.169,8.169,0,0,0,1.64.006c.551-.048.915-.479,1.446-.782,0,.364.02.608,0,.847-.048.46-.11.918-.19,1.374-.019.108-.132.2-.2.3-.1-.079-.266-.15-.276-.239-.071-.634-.487-.757-1.024-.773-.437-.013-.873-.077-1.367-.124-.026.231-.06.4-.061.561-.006.966.014,1.932-.012,2.9a1,1,0,0,0,.507.908,1.755,1.755,0,0,0,2.662-.6c.094-.158.175-.309.446-.171" transform="translate(-577.413 -92.393)"/>
    <path id="Path_2435" data-name="Path 2435" d="M938.38,121.723a6.052,6.052,0,0,1-.207,2.055c-.145-.144-.243-.2-.287-.29a1.608,1.608,0,0,0-1.879-.976c-.228.031-.461.021-.692.03-.416.015-.474.064-.476.469-.006,1.119,0,2.239,0,3.358q0,1.939.007,3.879a3.89,3.89,0,0,0,.041.575c.087.565.264,1.056.969,1.064.019,0,.037.056.085.134a1.737,1.737,0,0,1-.373.085c-1.027,0-2.054-.018-3.081-.029l-.117-.187a1.7,1.7,0,0,0,.225-.05c.664-.243.723-.325.722-.991q-.006-3.387-.013-6.774c0-.347.006-.695,0-1.042-.009-.458-.048-.491-.5-.49-.424,0-.85.016-1.273,0a1.466,1.466,0,0,0-1.292.63.773.773,0,0,1-.184.217.344.344,0,0,1-.259.02c-.044-.016-.082-.134-.072-.2.068-.435.151-.867.227-1.3a.311.311,0,0,1,.41-.287.53.53,0,0,1,.113.023,6.38,6.38,0,0,0,2.57.251c1.2.006,2.393.02,3.589,0,.55-.011,1.1-.1,1.746-.168" transform="translate(-705.123 -92.233)"/>
    <path id="Path_2436" data-name="Path 2436" d="M850.364,121.677a2.819,2.819,0,0,1-.228,2.054,2,2,0,0,1-.232-.3,1.643,1.643,0,0,0-1.747-.941,6.158,6.158,0,0,1-.689.054c-.57.009-.59.024-.589.584q0,2.4,0,4.806c0,.791-.025,1.583,0,2.373a3.949,3.949,0,0,0,.213,1.129c.055.159.29.272.464.37a3.362,3.362,0,0,1,.411.174,4.733,4.733,0,0,1-1.733.094,4.815,4.815,0,0,1-1.759-.124,1.248,1.248,0,0,1,.214-.125c.55-.189.653-.309.653-.866q0-3.938-.007-7.875c0-.531-.024-.545-.557-.539-.386,0-.773.018-1.158,0a1.484,1.484,0,0,0-1.349.634.976.976,0,0,1-.186.217c-.053.038-.17.066-.2.036a.314.314,0,0,1-.113-.232c.063-.436.146-.868.223-1.3a.3.3,0,0,1,.364-.28.611.611,0,0,1,.17.032,6.078,6.078,0,0,0,2.456.249c1.293.005,2.586.014,3.879-.005a8.73,8.73,0,0,0,1.134-.16l.365-.058" transform="translate(-638.419 -92.236)"/>
    <path id="Path_2437" data-name="Path 2437" d="M523.1,132.028c-1.078.1-2.166-.036-3.244.051-.076.006-.157-.058-.306-.117a1.573,1.573,0,0,1,.238-.158c.658-.241.7-.286.7-.944q0-3.853,0-7.707c0-.188-.022-.376-.039-.637h-.938c-.309,0-.618-.007-.927,0a1.436,1.436,0,0,0-1.1.547c-.063.072-.093.181-.166.233a1.129,1.129,0,0,1-.3.107.81.81,0,0,1-.084-.3c.051-.378.135-.752.192-1.129.051-.337.148-.47.437-.372,1.418.481,2.875.186,4.312.257.616.031,1.236.007,1.854.011a3.649,3.649,0,0,0,1.538-.2.572.572,0,0,1,.216,0,2.78,2.78,0,0,1-.209,2.031,1.979,1.979,0,0,1-.233-.3,1.656,1.656,0,0,0-1.638-.95c-.306.028-.613.051-.92.067-.408.022-.47.066-.475.476-.01.734,0,1.468,0,2.2,0,1.661-.015,3.323.01,4.983a4.615,4.615,0,0,0,.232,1.242c.044.147.254.265.413.351a1.956,1.956,0,0,0,.463.124l-.013.139" transform="translate(-392.049 -92.201)"/>
    <path id="Path_2438" data-name="Path 2438" d="M1009.056,60.951c.139-.043.278-.09.419-.126a.685.685,0,0,0,.554-.658c.013-.154.016-.309.016-.463q0-3.681,0-7.362c0-.932,0-.932-.849-1.27a.421.421,0,0,1-.237-.231c.132-.01.265-.032.4-.029,1.562.032,3.124.073,4.686.094a3,3,0,0,0,.616-.146c.138-.029.28-.037.531-.069-.34.682-.179,1.379-.557,2.012a1.886,1.886,0,0,1-.331-.237c-.087-.1-.128-.238-.207-.347a1.215,1.215,0,0,0-1.261-.631c-.4.071-.8.09-1.235.136a4.184,4.184,0,0,0-.057.475q-.008,1.333,0,2.666c0,.514.031.538.57.551.328.008.657,0,.985.011a1.562,1.562,0,0,0,1.295-.345c.042-.043.142-.03.237-.047a1.451,1.451,0,0,1-.1,1.02c-.091.314.084.7-.279,1a1.561,1.561,0,0,1-.213-.335.909.909,0,0,0-.969-.671c-.478,0-.956.049-1.471.079-.022.2-.051.347-.051.494q-.007,1.594,0,3.188c0,.867.125,1.008.994,1.164.062.011.116.068.167.162a7.573,7.573,0,0,1-1.794.1c-.605.034-1.215-.009-1.822-.018l-.026-.165" transform="translate(-765.218 -38.445)"/>
    <path id="Path_2439" data-name="Path 2439" d="M908.789,121.552a2.5,2.5,0,0,1-.038.307,2.232,2.232,0,0,0-.1,1.2c.05.167-.013.336-.207.332a.371.371,0,0,1-.274-.219,1.589,1.589,0,0,0-.671-.972,1.573,1.573,0,0,0-2.475,1.23.943.943,0,0,0,.079.391,3.959,3.959,0,0,0,1.309,1.734c.561.5,1.133.992,1.683,1.506a3.061,3.061,0,0,1,.953,1.812A2.411,2.411,0,0,1,907.8,131.3a5.02,5.02,0,0,1-2.34.78,1.981,1.981,0,0,1-1.752-.561.808.808,0,0,1-.218-.45,4.909,4.909,0,0,1,.258-1.608c.282-.042.3.106.323.272a1.848,1.848,0,0,0,1.644,1.656,1.985,1.985,0,0,0,2.047-1.463.928.928,0,0,0-.071-.553,6.442,6.442,0,0,0-1.66-2.2c-.627-.626-1.258-1.253-1.833-1.925a2.147,2.147,0,0,1,.948-3.525,6.263,6.263,0,0,1,3.528-.269c.032.006.056.05.112.1" transform="translate(-685.225 -92.009)"/>
    <path id="Path_2440" data-name="Path 2440" d="M882.275,122.748h3.132c-.022.082-.023.143-.042.149-.565.177-.67.595-.666,1.13.018,2.317.007,4.634.012,6.951a5.937,5.937,0,0,0,.049.633,1.022,1.022,0,0,0,.6.858,3.659,3.659,0,0,1,.42.295,1.359,1.359,0,0,1-.291.087c-1.159-.019-2.317-.043-3.51-.149.2-.084.4-.17.6-.25a.906.906,0,0,0,.63-.97q-.014-3.56.063-7.121a1.2,1.2,0,0,0-.829-1.344.9.9,0,0,1-.213-.163l.04-.106" transform="translate(-668.914 -93.095)"/>
    <path id="Path_2441" data-name="Path 2441" d="M460.381,122.837c-.055.045-.1.111-.166.133a.841.841,0,0,0-.546.921c0,2.4-.006,4.791,0,7.187a1.376,1.376,0,0,0,.821,1.461c.066.026.114.1.257.22a10.4,10.4,0,0,1-1.921-.009c-.6.068-1.217.077-1.9.115.136-.308.371-.307.546-.381.655-.276.685-.323.692-1.025.025-2.374.04-4.749.094-7.123a1.18,1.18,0,0,0-.79-1.316c-.088-.033-.152-.133-.316-.282h3.191l.034.1" transform="translate(-346.546 -93.088)"/>
    <path id="Path_2442" data-name="Path 2442" d="M527.379,51.705h3.244a1.856,1.856,0,0,1-.305.243.881.881,0,0,0-.534.935c0,2.375-.011,4.751,0,7.126a1.429,1.429,0,0,0,.844,1.511c.074.03.122.124.22.229-.476.186-.878-.044-1.285-.045a9.437,9.437,0,0,0-1.213.042,9.784,9.784,0,0,1-1.221.085l-.037-.154.544-.235c.6-.255.653-.35.659-1,.023-2.374.029-4.748.089-7.121a1.219,1.219,0,0,0-.83-1.351.957.957,0,0,1-.214-.163l.037-.106" transform="translate(-399.76 -39.214)"/>
    <path id="Path_2443" data-name="Path 2443" d="M604.106,122.688h3.335c-.135.127-.186.214-.259.238a.828.828,0,0,0-.552.914q0,3.594,0,7.188a1.393,1.393,0,0,0,.854,1.5c.063.024.108.095.225.2a11.151,11.151,0,0,1-1.922-.023c-.6.065-1.206.077-1.91.118a1.083,1.083,0,0,1,.655-.416.912.912,0,0,0,.622-.976q-.009-3.474.077-6.949c.019-.741-.134-1.294-.9-1.543-.057-.019-.095-.1-.232-.254" transform="translate(-457.997 -93.049)"/>
  </g>
</svg>
