<svg xmlns="http://www.w3.org/2000/svg" width="353.043" height="637" viewBox="0 0 353.043 637">
  <path id="banner-wave-2" d="M345.716,1072.663a209.525,209.525,0,0,1,19.105-25.274c23.182-27.676,49.253-53.62,66.271-85.8,18.147-33.192,15.775-74.693-3.421-106.907C400.005,799.722,295.327,744.9,316.339,677.231c10.548-28.873,39.277-45.119,64.544-59.7,24.1-12.82,47.127-25.492,43.966-56.923-3.047-27.871-18.188-55.216-41.634-70.97-31.549-19.264-69.391-24.037-104.193-35.1A496.093,496.093,0,0,1,222.5,436.663H512.556a209.562,209.562,0,0,1,27,48.569c9.876,26.158,18.553,56.239,6.541,83.128-20.238,43.108-75.748,65.634-80.49,116.979-3.435,42.573,34.205,71.686,57.041,103.024,19.622,24.169,36.157,51.43,45.285,81.33,10.572,31.678,1.035,65.771-17.964,92.232-21.247,32.105-41.756,72.195-27,110.739Z" transform="translate(-219.811 -436.163)" fill="#b73f96" stroke="rgba(0,0,0,0)" stroke-miterlimit="10" stroke-width="1"/>
</svg>
