<svg xmlns="http://www.w3.org/2000/svg" width="217.596" height="637" viewBox="0 0 217.596 637">
  <path id="banner-wave-3" d="M535.594,1071.663c-14.024-38.237,6.315-77.911,27.38-109.739,19-26.461,28.536-60.554,17.964-92.232-9.129-29.9-25.664-57.162-45.285-81.33-22.836-31.338-60.476-60.451-57.041-103.024,4.741-51.345,60.25-73.871,80.49-116.979,12.011-26.888,3.335-56.97-6.541-83.128a210.062,210.062,0,0,0-27.745-49.568H673.426c20.369,47.888,28.881,101.993,14.1,146.9-14.458,42.016-58.585,67.693-67.684,111.917-11.181,61.3,63.532,97.947,71.637,175.619,3.142,26.223,1.182,54.193-11.99,77.581-6.52,11.706-15.737,21.759-21.293,34.025-7.38,15.564-9.662,34.095-4.5,50.671,5.53,15.883,15.826,28.785,28.49,39.288Z" transform="translate(-477.899 -435.163)" fill="#c271ac" stroke="rgba(0,0,0,0)" stroke-miterlimit="10" stroke-width="1"/>
</svg>
