<svg xmlns="http://www.w3.org/2000/svg" width="317.284" height="252.097" viewBox="0 0 317.284 252.097">
  <path id="Path_2160" data-name="Path 2160" d="M148.7,106.315c-19.5-3.826-43.49,1.083-60.079-5.369S62.846,76.678,49.309,64.583C36.481,53.121,19.748,46.8,0,55.578V7.28A51.517,51.517,0,0,1,14.372.732,23.088,23.088,0,0,1,23.686.281C37.279,2.514,47.969,19.815,57.033,31.016S72.647,44.753,82.241,50.867c7.672,4.89,13.339,7.979,26.049,9.926s34.326-.4,52.675-2.195c7.518-.735,6.232-1.335,22.145-1.274s49.948,8.826,58.595,22.389,3.905,44.026,3.128,60.252c-.185,3.85.615-11.342,0,0s-1.031,34.223,12.1,46.787,39.379,22.5,52.787,41.536a32.82,32.82,0,0,1,4.512,9.942l3.055,13.867H247.291c-5.826-9.192-14.93-16.695-23.365-23.528-14.814-12-27.565-21.94-31.5-37.148s.934-35.684-4.136-52.2S168.2,110.14,148.7,106.315" transform="translate(0 0)" fill="#a73a86" fill-rule="evenodd"/>
</svg>
