<svg id="Group_355" data-name="Group 355" xmlns="http://www.w3.org/2000/svg" width="134.354" height="44.052" viewBox="0 0 134.354 44.052">
  <path id="path2998" d="M33.531,16.06H17.854v4.652H28.972c-.549,6.524-5.977,9.306-11.1,9.306A12.225,12.225,0,0,1,5.6,17.633,12.247,12.247,0,0,1,17.887,5.168a12.067,12.067,0,0,1,8.382,3.362l3.257-3.373A16.561,16.561,0,0,0,17.72.5,17.371,17.371,0,0,0,.5,17.549,17.316,17.316,0,0,0,17.968,34.681c9.149,0,15.847-6.268,15.847-15.536a13.947,13.947,0,0,0-.284-3.085Z" transform="translate(-0.499 -0.503)" fill="#4885ed"/>
  <path id="path3000" d="M270.532,91.129a10.985,10.985,0,1,0,11.023,11.023,10.854,10.854,0,0,0-11.023-11.023Zm.064,4.315a6.684,6.684,0,1,1-6.286,6.647,6.316,6.316,0,0,1,6.286-6.647Z" transform="translate(-224.658 -78.941)" fill="#db3236"/>
  <path id="path3005" d="M449.112,91.129a10.985,10.985,0,1,0,11.023,11.023,10.854,10.854,0,0,0-11.023-11.023Zm.064,4.315a6.684,6.684,0,1,1-6.286,6.647,6.316,6.316,0,0,1,6.286-6.647Z" transform="translate(-379.221 -78.941)" fill="#f4c20d"/>
  <path id="path3007" d="M627.472,91.215c-5.9,0-10.546,5.171-10.546,10.976a10.836,10.836,0,0,0,10.444,11,7.257,7.257,0,0,0,6.025-2.669v2.166c0,3.79-2.3,6.059-5.774,6.059A6.091,6.091,0,0,1,622,114.833l-4.222,1.765a10.568,10.568,0,0,0,9.88,6.469c5.871,0,10.345-3.7,10.345-11.453V91.875h-4.606v1.861a7.77,7.77,0,0,0-5.923-2.521Zm.427,4.306c2.895,0,5.867,2.472,5.867,6.693,0,4.291-2.966,6.655-5.931,6.655-3.148,0-6.077-2.556-6.077-6.615,0-4.217,3.042-6.734,6.141-6.734Z" transform="translate(-534.023 -79.015)" fill="#4885ed"/>
  <path id="path3011" d="M859.949,91.02c-5.57,0-10.246,4.431-10.246,10.97a10.623,10.623,0,0,0,10.781,11.023,11.145,11.145,0,0,0,9.2-4.821l-3.8-2.527a6.147,6.147,0,0,1-5.382,3.024,5.65,5.65,0,0,1-5.388-3.329l14.729-6.112-.765-1.791a9.945,9.945,0,0,0-9.135-6.437Zm.192,4.225a4.379,4.379,0,0,1,4.065,2.346L854.37,101.7c-.424-3.183,2.591-6.458,5.772-6.458Z" transform="translate(-735.495 -78.846)" fill="#db3236"/>
  <path id="path3015" d="M797.49,41.328h4.838V8.95H797.49Z" transform="translate(-690.304 -7.814)" fill="#3cba54"/>
</svg>
