<svg xmlns="http://www.w3.org/2000/svg" xmlns:xlink="http://www.w3.org/1999/xlink" width="1400" height="222" viewBox="0 0 1400 222">
  <defs>
    <clipPath id="clip-path">
      <rect id="Rectangle_304" data-name="Rectangle 304" width="1400" height="222" transform="translate(0 575)" fill="rgba(255,255,255,0.52)" stroke="#707070" stroke-width="1"/>
    </clipPath>
    <clipPath id="clip-path-2">
      <rect x="-196.578" y="436" width="2670.939" height="796" fill="none"/>
    </clipPath>
  </defs>
  <g id="Mask_Group_790" data-name="Mask Group 790" transform="translate(0 -575)" clip-path="url(#clip-path)">
    <g id="Component_39_1" data-name="Component 39 – 1" transform="translate(-288.078 50.197)">
      <g id="Scroll_Group_1" data-name="Scroll Group 1" transform="translate(196.578 -436)" clip-path="url(#clip-path-2)" style="isolation: isolate">
        <g id="Group_484" data-name="Group 484" transform="translate(2161.991 336.853) rotate(90)">
          <g id="Group_483" data-name="Group 483" transform="translate(645 -312)">
            <g id="Mask_Group_789" data-name="Mask Group 789" transform="translate(0 0)">
              <path id="Path_2147" data-name="Path 2147" d="M0,955.616v-59.3q.587,6.309,1.185,12.558C20.413,1114.355,48.447,1241.2,82,1301.069c11.162,25.03,23.3,35.826,33.419,79.4,7.52,35.637,12.377,97.493,13.354,160.538,1.014,71.1-6.373,99.763-14.1,128.765-8.1,32.979-17.319,69.729-20.7,135.041-6.74,153.072,26.835,277.082,35.709,401.4,6.157,72.871,6.918,166.749,1.1,241.831-5.458,72.794-13.821,131.482-21.256,194.088-5.546,45.336-10.711,97.362-11.018,159.321a1261.928,1261.928,0,0,0,9.42,142.361h-29.1a1204.138,1204.138,0,0,1-6.095-190.687c2.3-55.22,7.113-103.638,12.551-145.86,5.726-44.641,12.494-83.467,17.063-134.889,13.069-148.909-12.887-263.92-26.983-346.865-10.572-62.736-22.912-126.928-27.369-223.089-2.82-98.172,11.78-159.924,18.132-234.294,11.527-126.146-33.481-254.264-44.741-308.224-7.326-31.93-14.5-65.79-21.377-102.344Z" transform="translate(-11.491 -273.248)" fill="#a73a86"/>
              <path id="Path_2148" data-name="Path 2148" d="M35.387,0h5.442c.927,92.08,3.7,183.171,8.862,267.974,11.689,187.865,33.253,337.154,58,441.341,22.394,100.4,47.8,205.657,57.879,388.306,3.168,59.171,5.951,127.217,2.1,188.04-6.492,97.514-24.3,148.469-25.817,264.616-1.1,96.3,10.971,162.157,18.3,233.044,6.294,54.672,11.6,116.337,14.525,183.975,3.391,71.658.332,148.778-5.762,208.634-6.979,74.376-13.71,167.695-8.3,256.8,6.448,105.268,20.278,175.2,33.463,238.207H107.921a1261.908,1261.908,0,0,1-9.42-142.361c.307-61.959,5.471-113.984,11.018-159.321,7.435-62.6,15.8-121.293,21.256-194.088,5.82-75.082,5.06-168.96-1.1-241.83-8.874-124.32-42.449-248.33-35.709-401.4,3.383-65.311,12.6-102.062,20.7-135.042,7.729-29,15.116-57.666,14.1-128.764-.977-63.046-5.833-124.9-13.354-160.538-10.119-43.576-22.257-54.373-33.419-79.4C48.447,968.324,20.413,841.477,1.185,636Q.586,629.748,0,623.442V0Z" transform="translate(-12.32 -0.37)" fill="#b84094"/>
              <path id="Path_2149" data-name="Path 2149" d="M484.949,0h5.405c-1.771,46.483-2.916,94-2.9,142.415-.213,108.9,5.085,216.851,14.02,305.132,5.289,54,12.7,94.454,20.17,132.515,13.6,70.317,27.981,135.449,39.506,223.274,16.268,124.543,28.644,347.589,20.854,514.457-4.637,95.042-18.79,153.125-21.709,253.161-3.586,138.671,20.378,221.562,22.977,397.26,1.008,59.318.379,122.587-3.846,175.492-2.091,26.48-5.048,49.222-6.83,76.968a1081.857,1081.857,0,0,0-1.444,114.62c2.573,52.14,8.367,90.075,15.029,117.837v217.807H567.218c-13.186-63-27.016-132.938-33.463-238.207-5.411-89.107,1.32-182.426,8.3-256.8,6.094-59.856,9.153-136.976,5.762-208.634-2.928-67.637-8.231-129.3-14.525-183.975-7.324-70.887-19.4-136.742-18.3-233.044,1.521-116.147,19.325-167.1,25.817-264.616,3.853-60.823,1.07-128.869-2.1-188.04-10.083-182.649-35.485-287.906-57.879-388.306-24.743-104.187-46.306-253.476-58-441.341C417.681,183.171,414.9,92.08,413.977,0Z" transform="translate(-387.468 -0.37)" fill="#c271ac"/>
            </g>
          </g>
        </g>
      </g>
    </g>
  </g>
</svg>
