<svg fill="none" height="27.121181" width="112.91819" xmlns="http://www.w3.org/2000/svg"><g fill="#fff"><path d="m22.197606 10.144543c-.391487-.8951645-.909598-1.7293955-1.538558-2.477081-.929676-1.1382715-2.089904-2.0667532-3.404293-2.7243254-1.314392-.6575654-2.753174-1.0293203-4.221577-1.0907932-1.468399-.0614763-2.933184.1887281-4.2979637.7341474-1.364725.5454108-2.598494 1.3736718-3.620074 2.4302613-1.021588 1.0565822-1.80783 2.3175461-2.306977 3.6999029-.499147 1.382318-.699891 2.854719-.589007 4.320197.110891 1.465553.53088 2.890954 1.23234 4.18242.70146 1.291543 1.668482 2.419844 2.837418 3.310671.750047.583036 1.57883 1.056989 2.461687 1.40778 1.23777.507263 2.5625467.76851 3.9002457.76928 2.761253-.0061 5.407419-1.106763 7.358543-3.060732 1.951046-1.95397 3.047808-4.601753 3.04981-7.363005.002-1.424322-.291327-2.833565-.861594-4.138723zm-9.55445-4.1771958c1.201303-.0001233 2.388072.2624315 3.47714.7692788-.265553.1147505-.544802.1949057-.83082.2384851-.941136.1362313-1.81296.5731675-2.48539 1.245594-.672426.6724195-1.109377 1.5442745-1.245616 2.4854119-.05975.527803-.299865 1.018835-.679657 1.39024-.379794.37141-.876055.600346-1.4050907.64835-.941136.136239-1.812983.573191-2.485403 1.245618-.672419.672427-1.109362 1.544252-1.245594 2.485386-.04613.501879-.260254.973525-.607731 1.338548-.599537-1.266774-.868862-2.664707-.782918-4.063564.08594-1.398858.524364-2.753253 1.274465-3.9371744.750094-1.18385 1.787497-2.1587443 3.015667-2.8339166 1.228156-.6751736 2.6071657-1.0286808 4.0086387-1.0276426zm-6.3619337 13.7008758c.09232-.08462.184626-.161549.27694-.253863.684388-.663505 1.123694-1.539405 1.246233-2.484772.04969-.531421.286933-1.027758.669264-1.400089.367947-.382948.863133-.618269 1.392396-.661581.9411377-.136241 1.8129627-.57319 2.4853877-1.245618.672427-.672426 1.109379-1.544249 1.245619-2.485387.03332-.555805.271784-1.079454.669272-1.4693254.377024-.3755223.876903-.6022668 1.407781-.6385084.864594-.1189533 1.670953-.5033246 2.307838-1.1000623.725202.6016304 1.339547 1.3253853 1.8155 2.1385971-.02923.03946-.06276.07561-.09999.107691-.367178.386331-.861746.626809-1.392395.676963-.942139.133857-1.815269.570038-2.488159 1.24285-.672811.672888-1.108992 1.54602-1.242847 2.488158-.05422.529571-.289864 1.02414-.666965 1.399857-.377179.375793-.872594.609577-1.402397.66181-.943906.135162-1.818961.571268-2.495313 1.243387-.6762767.672201-1.1177667 1.544564-1.2587767 2.487623-.04138.375948-.170549.736971-.376946 1.053913-.789287-.468642-1.496178-1.063757-2.092437-1.761646zm6.3619337 2.969419c-.780588.000846-1.557484-.107931-2.30784-.323098.256709-.478493.423565-.999987.49234-1.538559.05393-.528419.288479-1.022064.664042-1.397629.375562-.37556.869207-.610114 1.397626-.664039.942521-.134703 1.816115-.570961 2.49008-1.243541.673889-.672504 1.111994-1.545254 1.248618-2.487467.05394-.528416.288479-1.022064.664042-1.397626.375562-.375562.869209-.610116 1.397626-.664041.709277-.09224 1.385321-.356331 1.969358-.769281.324326 1.229232.362713 2.516391.112312 3.762778-.2504 1.246387-.783049 2.418922-1.556943 3.427524-.773897 1.008525-1.768499 1.826502-2.907647 2.390999-1.139074.564496-2.392305.860593-3.663616.865515z" stroke-width=".76928"/><path d="m29.226638 17.895939c.128.874665.213333 1.279998.405333 1.770663.405332 1.045332 1.023998 1.855998 1.87733 2.431997 1.023999.682665 2.730662 1.109331 4.479993 1.109331 2.282663 0 3.967994-.533332 5.098659-1.621331.874665-.874665 1.343998-2.111996 1.343998-3.626661 0-1.599997-.554666-2.773328-1.770664-3.669327-.767999-.533333-1.791998-.938665-3.477328-1.301331-2.367996-.533333-2.538663-.575999-3.007995-.767999-.981332-.426666-1.450665-1.045332-1.450665-1.94133 0-1.3866637 1.258665-2.3253297 3.114662-2.3253297 1.173331 0 2.111997.362667 2.666662 1.023999.362666.426666.512.789332.639999 1.5146637l3.050662-.362666c-.255999-1.1306647-.511999-1.7706637-1.045331-2.4746627-1.045332-1.407998-2.879996-2.154663-5.311992-2.154663-3.669328 0-6.058657 1.919997-6.058657 4.8853247 0 1.429331.554666 2.602663 1.642664 3.455995.767999.597332 1.621331.938665 3.221328 1.301331 2.943996.682666 3.071995.703999 3.711994 1.045332.661333.362666 1.066665 1.087998 1.066665 1.962663 0 1.599998-1.279998 2.559996-3.413328 2.559996-1.386664 0-2.495996-.447999-3.114661-1.258665-.384-.490665-.512-.917331-.597333-1.87733zm17.045309-10.5599827c.08533.767999.149333 1.706664.149333 2.623996v.6613307h-.789332c-.895998 0-1.301331-.02133-1.919997-.127999v2.517329c.703999-.106667 1.109332-.128 1.898664-.128h.810665v7.167989c0 2.239996.981332 3.114662 3.434662 3.114662 1.109331 0 1.74933-.106667 2.666662-.448l-.383999-2.261329c-.661333.362666-1.002665.469332-1.557331.469332-1.023999 0-1.407998-.383999-1.407998-1.429331v-6.613323h.959999c.981331 0 1.386664.02133 2.090663.128v-2.517329c-.682666.106666-1.151998.127999-2.154663.127999h-.895999v-.6613307c0-.959999.064-1.877331.149333-2.623996zm15.935976 15.5306407h2.879995c-.128-.959998-.170666-1.535997-.170666-2.666662v-5.738658c0-1.450664-.277333-2.261329-1.002665-2.943995-.917332-.895999-2.154663-1.258665-4.20266-1.258665-1.834664 0-3.029329.32-4.07466 1.087999-.810666.575999-1.194665 1.130664-1.685331 2.367996l2.730662.490666c.256-.767999.448-1.066665.853332-1.365331.490666-.384 1.365331-.618666 2.218663-.618666 1.621331 0 2.45333.639999 2.45333 1.87733v1.087999c-3.050662.064-4.629326.277332-6.015991.853332-1.471997.618665-2.410663 1.962663-2.410663 3.455994 0 2.239997 1.578665 3.583994 4.181327 3.583994.682666 0 1.365331-.08533 1.983997-.255999.874665-.234666 1.407998-.533333 2.26133-1.343998zm0-4.757325c0 .746665-.256 1.365331-.767999 1.87733-.725332.703999-1.834664 1.130665-2.965329 1.130665-1.194664 0-1.94133-.618666-1.94133-1.621331 0-1.663997 1.599998-2.367996 5.674658-2.453329zm14.357326-7.487989c-.959998-.170666-1.471997-.234666-1.983997-.234666-1.919997 0-3.242661.725332-4.01066 2.239997v-2.005331h-2.901329c.128.874666.149333 1.471998.149333 2.773329v6.698656c0 1.109332-.04267 1.727998-.149333 2.773329h3.050662c-.106666-1.002665-.149333-1.62133-.149333-2.773329v-3.94666c.128-1.023998.341333-1.514664.874665-2.13333.597333-.703999 1.407998-1.045332 2.474663-1.045332.554666 0 1.002665.08533 1.898664.341333zm2.986673-3.2853267c.08533.767999.149333 1.706664.149333 2.623996v.6613307h-.789332c-.895998 0-1.301331-.02133-1.919997-.127999v2.517329c.703999-.106667 1.109332-.128 1.898664-.128h.810665v7.167989c0 2.239996.981332 3.114662 3.434662 3.114662 1.109331 0 1.74933-.106667 2.666662-.448l-.383999-2.261329c-.661333.362666-1.002665.469332-1.557331.469332-1.023999 0-1.407998-.383999-1.407998-1.429331v-6.613323h.959999c.981331 0 1.386664.02133 2.090663.128v-2.517329c-.682666.106666-1.151998.127999-2.154663.127999h-.895999v-.6613307c0-.959999.064-1.877331.149333-2.623996zm19.306639 10.1119827c-.0427-.490666-.0427-.554665-.0427-.597332-.064-1.450664-.21333-2.218663-.61866-3.242662-.85333-2.13333-2.815997-3.370661-5.311993-3.370661-3.647994 0-6.01599 2.581329-6.01599 6.52799 0 3.989327 2.389329 6.506656 6.165323 6.506656 1.791997 0 3.285328-.554666 4.39466-1.642664.53333-.533332.81067-.938665 1.30133-1.962664l-2.517298-.810665c-.213333.575999-.362666.810665-.618666 1.109332-.618666.682665-1.514664 1.066665-2.559996 1.066665-1.087998 0-2.047997-.426666-2.666662-1.194665-.490666-.618666-.682666-1.215998-.789332-2.38933zm-9.215984-2.111996c.319999-1.791998 1.535997-2.901329 3.199994-2.901329 1.002666 0 1.727998.277333 2.303997.853332.533332.533332.789332 1.109331.938665 2.047997zm20.266613-4.71466c-.96-.170666-1.472-.234666-1.984-.234666-1.91999 0-3.24266.725332-4.01066 2.239997v-2.005331h-2.90133c.128.874666.14934 1.471998.14934 2.773329v6.698656c0 1.109332-.0427 1.727998-.14934 2.773329h3.05066c-.10666-1.002665-.14933-1.62133-.14933-2.773329v-3.94666c.128-1.023998.34133-1.514664.87467-2.13333.59733-.703999 1.40799-1.045332 2.47466-1.045332.55467 0 1.00266.08533 1.89866.341333z"/></g></svg>