<svg xmlns="http://www.w3.org/2000/svg" viewBox="0 0 1091 1000" fill="currentColor" aria-hidden="true">
  <path transform="matrix(1 0 0 -1 0 850)" d="M611 522l-19 62-19-62c-2-6-7-11-13-13l-61-19 61-19c6-2 11-6 13-13l19-61 19 61c2 7 7 11 13 13l62 19-62 19c-6 2-11 7-13 13z m-361 118l62 19-62 19c-6 2-11 7-13 13l-19 61-19-61c-2-6-7-11-13-13l-61-19 61-19c6-2 11-7 13-13l19-62 19 62c2 6 7 11 13 13z m568-92l-51 15c-17 6-29 22-29 40 0 18 12 34 29 39l51 16 4 14c-19 103-111 127-146 127-38 0-85-23-149-23-64 0-111 23-150 23-24 0-77-12-113-55l9-30 51-16c17-5 29-21 29-39 0-18-12-34-29-40l-51-15-16-51c-3-10-9-18-18-23 17-70 45-114 45-143 0-23-2-223 25-342 20-85 47-144 79-144 32 0 30 111 45 191 15 81 51 183 94 183s79-102 94-183c14-80 13-191 45-191 32 0 58 59 78 144 28 119 26 319 26 342 0 31 33 80 48 160l0 1z m-120-97l-51-16-15-50c-6-18-22-29-40-29-18 0-34 11-39 29l-16 50-50 16c-18 5-29 21-29 39 0 18 11 34 29 40l50 15 16 51c5 17 21 29 39 29 18 0 34-12 40-29l15-51 51-15c17-6 29-22 29-40 0-18-12-34-29-39z m207 171c-6 2-11 6-13 13l-19 61-19-61c-2-7-7-11-13-13l-62-19 62-19c6-2 11-7 13-13l19-62 19 62c2 6 7 11 13 13l61 19-61 19z"/>
</svg>
