<svg xmlns="http://www.w3.org/2000/svg" width="71.305" height="40.468" viewBox="0 0 71.305 40.468">
  <g>
    <path d="M281.231,75.658A143.67,143.67,0,0,1,294.31,58.029a134.839,134.839,0,0,1-15.067,15.3c.257.46.526.924.8,1.39C280.441,75.041,280.839,75.354,281.231,75.658Z" transform="translate(-254.555 -55.683)" fill="currentColor"/>
    <path d="M253.4,103.566A143.933,143.933,0,0,1,240.32,121.2a134.742,134.742,0,0,1,15.068-15.305q-.388-.69-.8-1.39C254.188,104.179,253.792,103.87,253.4,103.566Z" transform="translate(-231.583 -82.559)" fill="currentColor"/>
    <path d="M271.27,101.048c-.223.172-.449.347-.672.517.223.168.449.342.672.515l.319-.515Z" transform="translate(-249.453 -81.072)" fill="currentColor"/>
    <path d="M277.089,108.7c.151.264.294.527.441.79.147-.264.291-.526.441-.79l-.441-.373Z" transform="translate(-253.284 -85.37)" fill="currentColor"/>
    <path d="M277.53,94.606l.441-.373c-.151-.262-.294-.526-.441-.788-.147.262-.291.526-.441.788Q277.31,94.422,277.53,94.606Z" transform="translate(-253.284 -76.585)" fill="currentColor"/>
    <path d="M279.243,105.892A134.436,134.436,0,0,1,294.31,121.2a144.145,144.145,0,0,1-13.079-17.631c-.392.3-.79.613-1.186.936C279.769,104.967,279.5,105.431,279.243,105.892Z" transform="translate(-254.555 -82.559)" fill="currentColor"/>
    <path d="M283.638,102.08c.225-.173.453-.347.672-.515-.219-.17-.447-.345-.672-.517l-.317.517Z" transform="translate(-256.962 -81.072)" fill="currentColor"/>
    <path d="M220.452,103.375V95.49H219V93.913h4.744V95.49h-1.467v7.885Z" transform="translate(-218.999 -76.862)" fill="currentColor"/>
    <path d="M232.841,103.375V93.913h1.837l1.258,4.51c.064.223.162.615.3,1.183s.286,1.27.471,2.111h.119q-.221-1.723-.347-3.046c-.083-.885-.128-1.539-.128-1.971V93.913H238v9.462h-1.784l-1.224-4.216c-.019-.057-.047-.16-.085-.3a26.512,26.512,0,0,1-.74-3.069h-.106c.147,1.136.257,2.154.332,3.048s.117,1.641.117,2.235v2.305Z" transform="translate(-227.169 -76.861)" fill="currentColor"/>
    <path d="M249.09,103.375V95.49h-1.447V93.913h4.74V95.49h-1.466v7.885Z" transform="translate(-235.905 -76.862)" fill="currentColor"/>
    <path d="M302.394,103.375a2.914,2.914,0,0,0,2.58-1.192,6.747,6.747,0,0,0,.822-3.759,5.668,5.668,0,0,0-.828-3.463,3.3,3.3,0,0,0-2.741-1.047h-1.839v9.462Zm-.179-8.011h.075a1.3,1.3,0,0,1,1.26.713,6.189,6.189,0,0,1,.364,2.56,6.088,6.088,0,0,1-.372,2.539,1.32,1.32,0,0,1-1.277.73h-.051Z" transform="translate(-267.036 -76.861)" fill="currentColor"/>
    <path d="M322.78,104.438a1.752,1.752,0,0,1-.264.809.6.6,0,0,1-.515.281.655.655,0,0,1-.628-.443,3.87,3.87,0,0,1-.2-1.449v-.1h3.3v-.709a3.935,3.935,0,0,0-.621-2.415,2.157,2.157,0,0,0-1.836-.817,2.1,2.1,0,0,0-1.882.9,5.124,5.124,0,0,0-.606,2.8,4.9,4.9,0,0,0,.6,2.726,2.125,2.125,0,0,0,1.875.87,2.167,2.167,0,0,0,1.513-.526,2.9,2.9,0,0,0,.807-1.558Zm-1.388-3.173a.644.644,0,0,1,.6-.394.7.7,0,0,1,.649.377,2.7,2.7,0,0,1,.221,1.2h-1.685A2.8,2.8,0,0,1,321.392,101.265Z" transform="translate(-278.332 -80.217)" fill="currentColor"/>
    <path d="M338.17,106.711V99.739h1.609v1.1a2.473,2.473,0,0,1,.711-.936,1.569,1.569,0,0,1,.966-.309,1.163,1.163,0,0,1,1.041.451,3.122,3.122,0,0,1,.309,1.654v5.008h-1.7v-4.38a2.684,2.684,0,0,0-.132-1.032.465.465,0,0,0-.462-.268.514.514,0,0,0-.481.315,2.206,2.206,0,0,0-.161.951v4.414Z" transform="translate(-289.334 -80.217)" fill="currentColor"/>
    <path d="M358.245,102.356a1.78,1.78,0,0,0,.117.822.49.49,0,0,0,.445.183c.021,0,.053,0,.094-.006a.526.526,0,0,1,.1-.007v1.445c-.22.025-.411.039-.579.053s-.3.019-.407.019a1.387,1.387,0,0,1-1.147-.4,2.911,2.911,0,0,1-.317-1.651V99.094h-.683V97.8h.683V96.316h1.7V97.8H359v1.292h-.752Z" transform="translate(-299.777 -78.28)" fill="currentColor"/>
    <path d="M374.43,106.73V99.739h-1.7v1.3a2.54,2.54,0,0,0-.57-1.094,1.216,1.216,0,0,0-.89-.347,1.3,1.3,0,0,0-1.219.89,7.013,7.013,0,0,0-.4,2.716,6.609,6.609,0,0,0,.43,2.675,1.366,1.366,0,0,0,1.252.922,1.127,1.127,0,0,0,.822-.353,2.624,2.624,0,0,0,.573-1.054v1.336Zm-1.788-1.971c-.125.347-.307.52-.554.52s-.415-.17-.528-.5a5.136,5.136,0,0,1-.17-1.539,5.61,5.61,0,0,1,.166-1.615c.113-.325.291-.491.543-.491.236,0,.417.172.539.519a4.689,4.689,0,0,1,.185,1.507A5.169,5.169,0,0,1,372.642,104.759Z" transform="translate(-307.916 -80.217)" fill="currentColor"/>
    <rect width="1.683" height="9.462" transform="translate(69.622 17.052)" fill="currentColor"/>
    <path d="M236.99,56.681a2.189,2.189,0,1,0-2.184-2.188A2.187,2.187,0,0,0,236.99,56.681Z" transform="translate(-228.329 -52.303)" fill="currentColor"/>
    <path d="M312.98,144.746a2.19,2.19,0,1,0-2.188-2.19A2.186,2.186,0,0,0,312.98,144.746Z" transform="translate(-273.176 -104.278)" fill="currentColor"/>
    <path d="M236.99,144.746a2.19,2.19,0,1,0-2.184-2.19A2.187,2.187,0,0,0,236.99,144.746Z" transform="translate(-228.329 -104.278)" fill="currentColor"/>
    <path d="M312.98,56.681a2.189,2.189,0,1,0-2.188-2.188A2.186,2.186,0,0,0,312.98,56.681Z" transform="translate(-273.176 -52.303)" fill="currentColor"/>
    <path d="M255.406,73.38a135.253,135.253,0,0,1-15.067-15.305A143.806,143.806,0,0,1,253.418,75.7c.392-.3.788-.617,1.186-.936C254.88,74.3,255.146,73.837,255.406,73.38Z" transform="translate(-231.594 -55.71)" fill="currentColor"/>
  </g>
</svg>
