<svg fill="none" height="30" viewBox="0 0 138 30" width="138" xmlns="http://www.w3.org/2000/svg"><path d="m20.99 23.759-17.94-12.375c-1.818-1.254-1.2-3.86502 1.067-4.47902l19.067-5.175c.4039-.14574.8367-.19305 1.2626-.138.4258.05505.8324.21087 1.186.45453.3535.24366.6439.56813.8469.94648s.3129.79967.3205 1.22899l-1.13 17.54902c-.134 2.083-2.862 3.242-4.68 1.988z" fill="#e9327c"/><path d="m15.3 26.814-10.56902-20.66896c-.2416-.47284-.34791-1.00323-.30722-1.53266s.22681-1.03734.53782-1.46771c.31102-.43037.73485-.76649 1.22476-.97129s1.02686-.27032 1.55164-.18933l19.58702 3.02299c.4509.06961.8789.24526 1.2488.51251.3698.26726.6709.61848.8786 1.02479.2076.40631.3159.8561.3158 1.3124-.0001.45629-.1085.90606-.3162 1.3123l-9.023 17.64596c-.2423.4715-.6099.8671-1.0624 1.1432-.4525.2762-.9723.4222-1.5024.4221s-1.0499-.1463-1.5023-.4226c-.4524-.2764-.8198-.6721-1.0619-1.1437z" fill="#1dace3"/><g fill="#001a49"><path d="m26.752 4.91801-9.764-1.507-11.988 3.255 4.785 9.36099 11.205 7.732c.2472.1687.5191.2979.806.383l4.256-8.323z"/><path d="m76.209 7.33402c0-.36293.1076-.7177.3092-1.01947.2017-.30176.4883-.53696.8236-.67585.3353-.13888.7042-.17522 1.0602-.10442.3559.07081.6829.24558.9395.5022.2567.25663.4314.5836.5022.93955.0708.35596.0345.72492-.1044 1.06022s-.3741.62189-.6758.82352c-.3018.20163-.6566.30925-1.0195.30925-.4852-.00494-.949-.19986-1.2921-.54292-.343-.34307-.538-.80694-.5429-1.29208zm.306 2.73198h3.059v10.194h-3.059z"/><path d="m92.7839 15.163c.0356.6738-.0625 1.348-.2884 1.9838-.226.6357-.5754 1.2206-1.0281 1.7209-.4528.5002-1 .906-1.6102 1.1941-.6102.288-1.2713.4526-1.9453.4842-.5669.0308-1.1336-.0648-1.6591-.2799-.5254-.2152-.9964-.5445-1.3789-.9641v5.036h-3.058v-14.272h3.058v.958c.3826-.4195.8536-.7486 1.3791-.9636.5254-.21495 1.0921-.31041 1.6589-.27942.674.03149 1.335.19593 1.9452.48382.6102.288 1.1574.6937 1.6102 1.1939s.8022 1.0849 1.0282 1.7207c.2259.6357.324 1.3098.2884 1.9836zm-3.058 0c-.012-.4773-.1645-.9404-.4384-1.3315-.2739-.391-.6571-.6926-1.1015-.8669-.4445-.1744-.9305-.2137-1.3972-.1132s-.8935.3364-1.2268.6782-.5584.7744-.6471 1.2435-.037.954.1485 1.3939.4966.8153.8944 1.0793c.3979.264.8647.4047 1.3421.4047.3279.0148.6551-.04.9603-.1606.3052-.1207.5814-.3046.8105-.5395.2291-.235.4059-.5157.5189-.8239.1129-.3081.1594-.6367.1363-.964z"/><path d="m102.223 17.2c0 2.345-2.039 3.344-4.2409 3.344-.8895.0805-1.7828-.1078-2.5642-.5405-.7814-.4326-1.4149-1.0898-1.8188-1.8865l2.65-1.508c.1078.3683.3386.6884.6541.9068.3154.2184.6963.3219 1.0789.2932.734 0 1.1-.225 1.1-.632 0-1.122-5.015-.53-5.015-4.058 0-2.222 1.875-3.343 4-3.343.7971-.02502 1.5862.16411 2.2849.5477.7.3836 1.283.9476 1.69 1.6333l-2.6089 1.407c-.1141-.2676-.3045-.4957-.5474-.6557-.243-.1601-.5277-.245-.8186-.2443-.53 0-.856.2-.856.571-.003 1.17 5.0119.395 5.0119 4.165z"/><path d="m113.4 10.066v10.194h-3.058v-.96c-.353.4229-.802.7561-1.309.9724-.506.2162-1.057.3093-1.607.2716-2.059 0-3.812-1.468-3.812-4.221v-6.257h3.058v5.811c-.026.243.002.4887.081.7199s.207.4425.376.6191.374.3142.601.4033c.228.0892.472.1276.716.1127 1.121 0 1.9-.652 1.9-2.1v-5.566z"/><path d="m130.928 14v6.26h-3.058v-5.994c0-1.019-.49-1.672-1.468-1.672-1.02 0-1.59.714-1.59 1.917v5.749h-3.059v-5.994c0-1.019-.489-1.672-1.468-1.672-1.019 0-1.59.714-1.59 1.917v5.749h-3.058v-10.194h3.063v.934c.317-.4159.733-.7457 1.21-.9594.477-.2136 1.001-.30424 1.522-.26359.523-.02559 1.045.08485 1.513.32059.468.2357.867.5886 1.158 1.0244.339-.4559.788-.8185 1.305-1.0537.517-.23525 1.086-.33546 1.652-.29129 2.34.004 3.868 1.67499 3.868 4.22299z"/><path d="m133.519 10.003c1.254 0 2.27-1.0163 2.27-2.26999 0-1.25368-1.016-2.27-2.27-2.27s-2.27 1.01632-2.27 2.27c0 1.25369 1.016 2.26999 2.27 2.26999z"/><path d="m34.457 5.37695h3.059v14.88305h-3.059zm4.791 9.78605c-.0033-1.0688.3105-2.1145.9018-3.0047.5913-.8903 1.4335-1.5851 2.4199-1.9964.9865-.41132 2.0727-.52069 3.1214-.31425 1.0486.20645 2.0124.71935 2.7693 1.47395.7569.7545 1.2729 1.7166 1.4826 2.7646s.1038 2.1346-.3044 3.1223-1.1003 1.8321-1.9887 2.4262-1.9331.9113-3.0019.9113c-.7098.0075-1.414-.1264-2.0715-.394-.6574-.2676-1.255-.6636-1.7577-1.1647-.5028-.5012-.9006-1.0975-1.1703-1.7541s-.4058-1.3604-.4005-2.0702zm7.748 0c-.012-.4611-.1596-.9083-.4245-1.2858-.2648-.3775-.6351-.6686-1.0645-.8368-.4295-.1681-.8989-.206-1.3497-.1087-.4508.0972-.8629.3253-1.1848.6555-.3219.3303-.5392.7481-.6249 1.2012-.0856.4532-.0358.9215.1434 1.3465.1791.4249.4796.7876.8638 1.0427s.8351.3912 1.2962.3914c.3158.009.6301-.0476.9229-.1661.2929-.1184.558-.2963.7787-.5224.2207-.226.3922-.4953.5036-.7909.1114-.2957.1604-.6112.1438-.9266zm15.249-5.1v9.685c0 3.425-2.671 4.872-5.382 4.872-.9542.072-1.9099-.1201-2.7623-.5553-.8523-.4351-1.5684-1.0966-2.0697-1.9117l2.609-1.509c.2106.4254.5461.7764.9616 1.0061.4155.2296.8911.3269 1.3634.2789.3015.0411.6083.0141.8979-.0792s.5545-.2503.7753-.4597c.2207-.2093.3916-.4655.5001-.7498.1085-.2842.1518-.5892.1267-.8923v-.938c-.3582.438-.8141.786-1.331 1.0161-.517.2301-1.0807.3359-1.646.3089-1.3455-.0419-2.622-.6058-3.559-1.5724s-1.461-2.2599-1.461-3.6061c0-1.3463.524-2.6396 1.461-3.6062s2.2135-1.53053 3.559-1.57235c.5653-.02704 1.129.07872 1.646.30885.5169.2301.9728.5781 1.331 1.0162v-1.04zm-2.976 4.893c.0202-.4924-.1074-.9795-.3663-1.3988s-.6373-.7516-1.0866-.9541c-.4492-.2025-.9488-.266-1.4344-.1823s-.9351.3107-1.2907.6519-.601.7809-.7046 1.2626c-.1037.4818-.0609.9835.1229 1.4408.1837.4572.5001.849.9083 1.125s.8897.4236 1.3824.4239c.3213.0225.6438-.0224.9467-.1319s.5795-.2812.8121-.5041c.2325-.2228.4159-.4919.5382-.7898.1223-.298.1809-.6183.172-.9402zm4.708.2c-.0033-1.0688.3105-2.1145.9018-3.0047.5913-.8903 1.4335-1.5851 2.4199-1.9964.9865-.41132 2.0727-.52069 3.1214-.31425 1.0486.20645 2.0123.71935 2.7693 1.47395.7569.7545 1.2729 1.7166 1.4826 2.7646s.1038 2.1346-.3044 3.1223-1.1003 1.8321-1.9887 2.4262-1.9331.9113-3.0019.9113c-.7092.0075-1.4128-.1262-2.0698-.3934-.657-.2671-1.2543-.6625-1.7569-1.1629-.5027-.5004-.9006-1.0958-1.1707-1.7517-.2702-.6558-.407-1.3588-.4026-2.068zm7.748 0c-.0118-.4613-.1594-.9089-.4242-1.2868-.2649-.3778-.6354-.6691-1.065-.8375-.4297-.1684-.8994-.2063-1.3505-.109-.4511.0972-.8635.3254-1.1855.6558-.3221.3305-.5396.7486-.6252 1.202-.0857.4534-.0357.9221.1436 1.3472.1794.4252.4801.788.8646 1.0432.3846.2551.8358.3911 1.2972.3911.3149.0083.628-.0484.9199-.1667s.5562-.2957.7764-.5209c.2201-.2252.3914-.4935.503-.788.1117-.2945.1613-.6089.1457-.9234z"/></g></svg>