<svg height="262.5" viewBox="0 0 906.79999 262.5" width="906.79999" xmlns="http://www.w3.org/2000/svg"><path d="m104.3 262.5q-27.7-.1-49.9-9.7-22.1-9.6-36.4-27.5-14.2-18-18-42.7l43.7-6.6q5.6 22.4 22.9 34.6 17.5 12.3 40.3 12.3 13.5 0 25.4-4.2 11.9-4.2 19.2-12.3 7.5-8 7.5-19.7 0-5.3-1.7-9.6-1.8-4.6-5.3-8.1-3.3-3.5-8.7-6.3-5.3-3-12.3-5.1l-65.1-19.2q-8.4-2.5-18.2-6.5-9.6-4.2-18.3-11.4-8.6-7.3-14.2-18.5-5.4-11.4-5.4-28 0-24.3 12.2-40.8 12.4-16.6 33.3-24.9 21-8.2 46.5-8 25.9.2 46.2 8.9 20.3 8.6 34 25 13.6 16.5 19.2 39.8l-45.3 7.8q-2.8-13.2-10.9-22.5-7.8-9.5-19.4-14.4-11.4-4.9-24.3-5.2-12.6-.2-23.5 3.8-10.6 3.9-17.3 11.2-6.5 7.4-6.5 17.2 0 9.3 5.6 15.2 5.6 5.8 13.9 9.3 8.4 3.3 16.9 5.6l45.2 12.6q9.3 2.4 20.8 6.6 11.6 4.2 22.2 11.7 10.7 7.6 17.5 19.8 7 12.3 7 31.2 0 19.6-8.2 34.4-8 14.8-21.9 24.5-13.8 9.8-31.6 14.8-17.7 4.8-37.1 4.8zm179.5-5.2h-43l.3-252h42.7v154l69.2-91h52.6l-73.3 94.5 79.6 94.5h-55.8l-72.3-91zm228 5.2q-28.6 0-50.3-12.4-21.7-12.4-34-34.4-12.1-22.1-12.1-50.8 0-31 11.9-53.7 11.9-22.9 33.1-35.5 21.2-12.7 49-12.7 29.4 0 49.9 13.9 20.6 13.6 30.6 38.6 10 25.1 7.5 59h-41.8v-15.4q-.2-30.8-10.9-44.9-10.6-14.2-33.5-14.2-26 0-38.5 16.1-12.6 15.9-12.6 46.7 0 28.7 12.6 44.4 12.5 15.8 36.7 15.8 15.6 0 26.8-6.8 11.4-7 17.5-20.2l41.6 12.7q-10.8 25.5-33.6 39.7-22.5 14.1-49.9 14.1zm65-88h-130v-31.8h130zm105.5 82.7h-42.2v-257.2h42.2zm138.4 5.2q-28.7 0-50.4-12.4-21.7-12.4-33.9-34.5-12.1-22-12.1-50.7 0-31 11.9-53.7 11.9-23 33.1-35.6 21.2-12.6 49-12.6 29.4 0 49.9 13.9 20.6 13.6 30.6 38.6 10 25.1 7.5 59h-41.8v-15.4q-.2-30.8-10.9-45-10.6-14.1-33.6-14.1-25.9 0-38.5 16.1-12.6 15.9-12.6 46.7 0 28.7 12.6 44.4 12.6 15.8 36.8 15.8 15.6 0 26.8-6.8 11.3-7 17.5-20.2l41.6 12.6q-10.8 25.6-33.6 39.8-22.6 14.1-49.9 14.1zm65-88h-130.1v-31.8h130.1z" fill="#101010"/></svg>